<svg xmlns="http://www.w3.org/2000/svg" viewBox="0 0 253.866 302.752"><defs><style>.cls-1{fill:#ffbd09;}.cls-2{fill:#ff4d35;}.cls-3{fill:#8d4666;}.cls-4{fill:#fff;}</style></defs><title>Asset 1</title><g id="Layer_2" data-name="Layer 2"><g id="Objects"><path class="cls-1" d="M231.964,18.843c-.337-.236-9.15-7.16-9.429-7.4-4.061-3.56-2.2-7.895-4.268-9.089-2.207-1.275-1.27,3.587-2.83,5.573s-6.506,2.225-4.743,4.068c1.647,1.724,5.421-1.107,9.84,2,.3.212,9.116,7.137,9.427,7.41l.788-1.444Z"/><path class="cls-1" d="M218.72,30.449c-.338-.236-9.15-7.159-9.43-7.4-4.059-3.56-2.2-7.9-4.269-9.089-2.207-1.275-1.27,3.587-2.828,5.572s-6.507,2.226-4.745,4.069c1.648,1.724,5.421-1.107,9.84,1.995.3.213,9.118,7.137,9.427,7.409l.789-1.443Z"/><path class="cls-1" d="M234.1,20.517c.308.272,9.122,7.2,9.425,7.408,4.419,3.1,8.192.271,9.842,2,1.761,1.844-3.185,2.084-4.746,4.069s-.621,6.849-2.829,5.573c-2.065-1.193-.208-5.529-4.267-9.089-.279-.244-9.093-7.168-9.43-7.4l1.214-1.11Z"/><path class="cls-1" d="M225.953,36.133c.308.272,9.123,7.2,9.427,7.409,4.419,3.1,8.193.27,9.841,1.995,1.762,1.843-3.184,2.084-4.745,4.068s-.621,6.849-2.829,5.573c-2.067-1.194-.209-5.529-4.267-9.089-.279-.244-9.094-7.168-9.431-7.4l1.214-1.109Z"/><path class="cls-2" d="M87.418,196.268c-7.832-7.543-15.793-19.3-4.37-36.466s15.766-22.695-.913-17.226S52.182,179.828,49.4,193,35.392,215.82,24.113,220.811c-17.924,7.929-42.713,32.479-2.3,64.224s54.776,13.455,62.615,1.728,3.825-35.514,23.6-44.053,31.948-24.031,9.7-19.353-36.7-11.071-31.071-26.119"/><path class="cls-3" d="M205.52,44.283,70.571,213.241l15.451,12.141L217.642,53.807l9.863-1.281s10.138-27.845,26.361-37.112c0,0-8.133.144-12.719-2.552-.34-.2-.743-.5-.743-.5s-.392-.32-.666-.6C236.032,7.937,234.248,0,234.248,0c-5.164,17.955-29.82,34.4-29.82,34.4Z"/><rect class="cls-4" x="57.459" y="223.715" width="8.654" height="31.374" transform="translate(-164.637 140.089) rotate(-51.846)"/><rect class="cls-4" x="48.009" y="237.544" width="5.825" height="31.373" transform="translate(-179.665 136.831) rotate(-51.846)"/><rect class="cls-3" x="31.697" y="258.473" width="14.063" height="20.556" transform="translate(-196.528 133.175) rotate(-51.845)"/><path class="cls-1" d="M73.4,275.5a2.825,2.825,0,1,1-.476-3.969A2.83,2.83,0,0,1,73.4,275.5Z"/><path class="cls-1" d="M60.334,278.413a2.825,2.825,0,1,1-.476-3.966A2.826,2.826,0,0,1,60.334,278.413Z"/><path class="cls-1" d="M74.826,287.4a2.825,2.825,0,1,0,.476,3.968A2.828,2.828,0,0,0,74.826,287.4Z"/><path class="cls-1" d="M61.445,287.666a2.825,2.825,0,1,0,.476,3.968A2.823,2.823,0,0,0,61.445,287.666Z"/></g></g></svg>