<svg xmlns="http://www.w3.org/2000/svg" viewBox="0 0 125.367 95.084"><defs><style>.cls-1{fill:#6dcecd;}.cls-2{fill:#fff;}.cls-3{fill:#0aa4c9;}.cls-4{fill:#0c80a6;}</style></defs><title>Asset 7</title><g id="Layer_2" data-name="Layer 2"><g id="Objects"><path class="cls-1" d="M19.881,51.557c6.262-.342,9.013,5.235,9.013,5.235,1.777-3.9,7.145-5.122,13.245-2.384,7.448,3.343,5.7,10.237,5.7,10.237,3.348-1.408,9.914,12.392,19.781,12.075s12.821-7.215,15.412-11.135,7.786-9.338,4.213-18.541S68.409,37.2,68.4,33.569c0,0-5.663,4.305-11.654-1.241-4.909-4.542-5.889-9.958-2.992-13.122,0,0-6.21-.347-8.346-6.242S33.31-1,26.544.1,12.093,5.794,6.167,14.753-.969,32.581.664,39.239,13.621,51.9,19.881,51.557Z"/><path class="cls-2" d="M51.259,41.761c.061.038.12.076.19.112a2.729,2.729,0,0,0,1.667.29,2.933,2.933,0,0,0,1.045-.372,3.252,3.252,0,0,0,.9-.839,3.466,3.466,0,0,0,.35-.545l.082-.143.079-.216.095-.28a1.3,1.3,0,0,0,.062-.391c.009-.149.015-.3.012-.454a5.739,5.739,0,0,0-.161-.758,7.01,7.01,0,0,0-1.569-2.5,16.976,16.976,0,0,0-2.188-2c-.789-.61-1.616-1.185-2.456-1.729s-1.738-1.006-2.5-1.5a18.62,18.62,0,0,1-2.18-1.557,4.818,4.818,0,0,1-1.391-1.73,1.448,1.448,0,0,1-.079-.83,2.392,2.392,0,0,1,.37-.827,3.37,3.37,0,0,1,1.333-1.115c.05-.023.1-.038.156-.057a1.772,1.772,0,0,0-.139.168c-1.167,1.765,1.628,3.466,2.79,1.709A1.6,1.6,0,0,0,46.3,23.761a2.953,2.953,0,0,0-1.6-.066A3.855,3.855,0,0,0,42.754,24.8a3.5,3.5,0,0,0-.749,1.158,2.675,2.675,0,0,0-.067,1.583,5.552,5.552,0,0,0,1.61,2.559,15.048,15.048,0,0,0,2.323,1.871c.851.571,1.69,1.042,2.488,1.564.817.5,1.614,1.033,2.365,1.586a21.4,21.4,0,0,1,2.1,1.7,6.741,6.741,0,0,1,1.438,1.822c.073.152.1.3.156.445a.685.685,0,0,0,.017.154c0,.058.053.086.018.2l-.054.291-.012.072,0,.028-.03.077a2.4,2.4,0,0,1-.192.44,2.134,2.134,0,0,1-1.879,1.231,1.592,1.592,0,0,0,.513-.495c1.1-1.662-1.535-3.267-2.63-1.611A1.479,1.479,0,0,0,51.259,41.761Zm-.813-.852a2.676,2.676,0,0,0,.2.3,2.266,2.266,0,0,0,.529.5,2.266,2.266,0,0,1-.529-.5A2.676,2.676,0,0,1,50.446,40.909Z"/><path class="cls-3" d="M28.282,34.6S31.912,35.8,33.763,33s-.679-5.668-.679-5.668-10.416-2.507-14.4-6.215-11.4-8.044-12.517-6.365,5.784,6.808,10.756,9.025S28.282,34.6,28.282,34.6Z"/><path class="cls-2" d="M46.147,45.553c-1.094,1.657,1.414,3.452,2.513,1.791a1.558,1.558,0,0,0,.253-.667,2.186,2.186,0,0,1,.148.67,2.236,2.236,0,0,1-.543,1.541,2.507,2.507,0,0,1-.33.349l-.058.057-.026.015-.062.042-.247.161c-.093.079-.138.044-.193.065a.645.645,0,0,0-.148.044c-.161,0-.3.039-.47.03a6.751,6.751,0,0,1-2.24-.609,21.336,21.336,0,0,1-2.387-1.265c-.8-.475-1.6-1-2.385-1.556-.793-.53-1.556-1.117-2.413-1.677a15.144,15.144,0,0,0-2.631-1.4,5.569,5.569,0,0,0-2.985-.479,2.705,2.705,0,0,0-1.432.681,3.452,3.452,0,0,0-.771,1.143,3.839,3.839,0,0,0-.259,2.223,2.937,2.937,0,0,0,.688,1.449,1.6,1.6,0,0,0,2.807.356c1.163-1.759-1.5-3.665-2.663-1.9a2.024,2.024,0,0,0-.1.194c0-.055-.008-.108-.007-.165a3.33,3.33,0,0,1,.5-1.662,2.364,2.364,0,0,1,.616-.664,1.442,1.442,0,0,1,.8-.253,4.829,4.829,0,0,1,2.135.6,18.181,18.181,0,0,1,2.286,1.4c.751.51,1.53,1.139,2.357,1.715.831.559,1.683,1.095,2.553,1.584a17.14,17.14,0,0,0,2.7,1.231,7.033,7.033,0,0,0,2.912.465,5.846,5.846,0,0,0,.761-.149c.14-.057.279-.122.413-.188a1.457,1.457,0,0,0,.336-.21l.22-.2.168-.158.1-.13a3.475,3.475,0,0,0,.364-.537,3.23,3.23,0,0,0,.42-1.157,2.915,2.915,0,0,0-.067-1.106,2.709,2.709,0,0,0-.919-1.421c-.06-.05-.119-.089-.177-.13A1.48,1.48,0,0,0,46.147,45.553Zm1.775-.233a2.266,2.266,0,0,1,.665.29,2.266,2.266,0,0,0-.665-.29,2.3,2.3,0,0,0-.35-.063A2.3,2.3,0,0,1,47.922,45.32Z"/><path class="cls-4" d="M124.891,93.264c1.3-1.96.187-9.416-6.388-7.383L60.1,45.186,57.7,48.827l-2.408,3.64L115.6,90.275C116.3,97.12,123.6,95.223,124.891,93.264Z"/><path class="cls-1" d="M109.969,90.782c.372-.561.151-1.413.337-1.691l5.035-7.616c.187-.28,1.054-.411,1.427-.972a2,2,0,0,0-.633-2.689,1.846,1.846,0,0,0-2.577.566,1.552,1.552,0,0,0-.1,1.852l-5.037,7.615a1.6,1.6,0,0,0-1.716.781,1.955,1.955,0,0,0,3.26,2.154Z"/><path class="cls-1" d="M105.816,88.037a1.545,1.545,0,0,0,.1-1.847l5.035-7.615a1.546,1.546,0,0,0,1.659-.819,1.874,1.874,0,0,0-.515-2.611,2.031,2.031,0,0,0-2.752.45c-.372.563-.711,1.043-.269,1.737l-5.038,7.616c-.81-.136-1.11.371-1.481.935a1.953,1.953,0,0,0,3.257,2.154Z"/><rect class="cls-3" x="37.291" y="37.771" width="9.013" height="0.75" transform="matrix(0.552, -0.834, 0.834, 0.552, -13.075, 51.972)"/></g></g></svg>