<svg xmlns="http://www.w3.org/2000/svg" viewBox="0 0 121.043 193.239"><defs><style>.cls-1{fill:#ffbd09;}.cls-2{fill:#8d4666;}.cls-3{fill:#ff4d35;}.cls-4{fill:#6dcecd;}.cls-5{fill:#fff;}.cls-6{fill:#454c53;}</style></defs><title>Asset 12</title><g id="Layer_2" data-name="Layer 2"><g id="Objects"><path class="cls-1" d="M57.638,192.871c6.149,1.431,8.231-1.221,11.285-9.546,2.992-8.158,21.667-62.412,26.276-76.285l-1.456-.482s-.266.8-.221.667.526-1.592.526-1.592l1.457.482c4.262-12.961,21.612-67.428,24.071-75.761,2.512-8.5,2.113-11.054-3.68-13.57S81.128,4.529,70.275,1.844,54.957-2.775,49.933,12.425C44.938,27.529,30.886,70.032,26.6,82.99l-1.256,3.8C21.059,99.749,7.007,142.253,2.013,157.356c-5.025,15.2-.26,16.152,10.055,20.468S51.485,191.441,57.638,192.871Z"/><path class="cls-2" d="M94.74,108.429c2.8-8.514,10.313-32,16.5-51.515L76.952,45.576,60.238,96.124,42.99,148.289l34.289,11.336C83.941,140.272,91.913,116.931,94.74,108.429Z"/><path class="cls-3" d="M94.892,107.965c2.592-7.882,9.549-29.69,15.124-47.35L75.727,49.278,60.23,96.151l-15.711,47.51L78.81,155C84.859,137.5,92.275,115.839,94.892,107.965Z"/><path class="cls-4" d="M93.875,44.115a10.291,10.291,0,1,1,13-6.539A10.291,10.291,0,0,1,93.875,44.115Z"/><path class="cls-2" d="M96.3,36.788a2.573,2.573,0,1,1,3.252-1.635A2.572,2.572,0,0,1,96.3,36.788Z"/><path class="cls-4" d="M49.724,177.649a10.292,10.292,0,1,1,13-6.541A10.293,10.293,0,0,1,49.724,177.649Z"/><path class="cls-2" d="M52.147,170.319a2.573,2.573,0,1,1,3.25-1.635A2.568,2.568,0,0,1,52.147,170.319Z"/><rect class="cls-5" x="62.892" y="4.993" width="4.873" height="27.288" transform="translate(27.12 74.809) rotate(-71.699)"/><rect class="cls-5" x="60.75" y="11.47" width="4.873" height="27.289" transform="translate(19.51 77.227) rotate(-71.709)"/><rect class="cls-5" x="57.969" y="18.41" width="5.848" height="27.289" transform="translate(11.35 79.814) rotate(-71.713)"/><rect class="cls-5" x="56.467" y="24.425" width="4.874" height="27.289" transform="translate(4.257 82.031) rotate(-71.69)"/><rect class="cls-5" x="54.326" y="30.902" width="4.873" height="27.289" transform="translate(-3.363 84.438) rotate(-71.688)"/><rect class="cls-5" x="51.544" y="37.842" width="5.848" height="27.289" transform="translate(-11.516 87.036) rotate(-71.703)"/><rect class="cls-5" x="49.736" y="44.782" width="4.873" height="27.29" transform="translate(-19.676 89.628) rotate(-71.71)"/><rect class="cls-5" x="47.901" y="50.334" width="4.873" height="27.289" transform="translate(-26.214 91.675) rotate(-71.695)"/><rect class="cls-5" x="45.759" y="56.811" width="4.873" height="27.289" transform="translate(-33.839 94.06) rotate(-71.678)"/><rect class="cls-5" x="43.311" y="64.215" width="4.873" height="27.289" transform="translate(-42.538 96.847) rotate(-71.7)"/><rect class="cls-5" x="41.17" y="70.691" width="4.872" height="27.289" transform="matrix(0.314, -0.949, 0.949, 0.314, -50.155, 99.266)"/><rect class="cls-5" x="39.334" y="76.244" width="4.873" height="27.288" transform="translate(-56.688 101.314) rotate(-71.696)"/><rect class="cls-5" x="36.552" y="83.184" width="5.847" height="27.289" transform="translate(-64.849 103.929) rotate(-71.714)"/><rect class="cls-5" x="35.385" y="89.661" width="3.898" height="27.29" transform="translate(-72.47 106.3) rotate(-71.692)"/><rect class="cls-5" x="32.603" y="96.601" width="4.872" height="27.289" transform="translate(-80.633 108.902) rotate(-71.703)"/><rect class="cls-5" x="30.127" y="102.616" width="5.847" height="27.288" transform="translate(-87.708 111.157) rotate(-71.711)"/><rect class="cls-5" x="28.319" y="109.556" width="4.873" height="27.29" transform="translate(-95.87 113.707) rotate(-71.696)"/><rect class="cls-5" x="25.844" y="115.57" width="5.848" height="27.289" transform="translate(-102.947 115.98) rotate(-71.711)"/><rect class="cls-5" x="24.037" y="122.51" width="4.872" height="27.289" transform="translate(-111.115 118.589) rotate(-71.722)"/><rect class="cls-5" x="21.895" y="128.988" width="4.873" height="27.289" transform="translate(-118.727 120.94) rotate(-71.697)"/><rect class="cls-5" x="19.753" y="135.465" width="4.873" height="27.289" transform="translate(-126.346 123.358) rotate(-71.7)"/><rect class="cls-5" x="17.611" y="141.942" width="4.874" height="27.289" transform="translate(-133.953 125.709) rotate(-71.678)"/><rect class="cls-5" x="14.83" y="148.883" width="5.847" height="27.289" transform="translate(-142.128 128.346) rotate(-71.699)"/><rect class="cls-6" x="66.935" y="14.634" width="3.899" height="17.544" transform="translate(25.042 81.464) rotate(-71.709)"/><rect class="cls-6" x="62.986" y="28.052" width="2.923" height="17.543" transform="translate(9.25 86.449) rotate(-71.699)"/><rect class="cls-6" x="60.845" y="34.528" width="2.923" height="17.544" transform="translate(1.633 88.86) rotate(-71.701)"/><rect class="cls-6" x="58.369" y="40.544" width="3.899" height="17.543" transform="translate(-5.447 91.092) rotate(-71.694)"/><rect class="cls-6" x="54.419" y="53.961" width="2.924" height="17.542" transform="translate(-21.225 96.089) rotate(-71.699)"/><rect class="cls-6" x="51.944" y="59.975" width="3.898" height="17.543" transform="translate(-28.296 98.337) rotate(-71.706)"/><rect class="cls-6" x="47.994" y="73.393" width="2.924" height="17.543" transform="translate(-44.079 103.329) rotate(-71.705)"/><rect class="cls-6" x="45.852" y="79.87" width="2.925" height="17.542" transform="translate(-51.696 105.751) rotate(-71.712)"/><rect class="cls-6" x="43.711" y="86.348" width="2.924" height="17.543" transform="translate(-59.316 108.171) rotate(-71.716)"/><rect class="cls-6" x="39.094" y="98.841" width="3.898" height="17.541" transform="translate(-74.012 112.808) rotate(-71.709)"/><rect class="cls-6" x="37.286" y="105.779" width="2.924" height="17.544" transform="translate(-82.177 115.34) rotate(-71.685)"/><rect class="cls-6" x="33.004" y="118.734" width="2.923" height="17.544" transform="translate(-97.419 120.285) rotate(-71.74)"/><rect class="cls-6" x="30.861" y="125.212" width="2.925" height="17.543" transform="translate(-105.038 122.66) rotate(-71.724)"/><rect class="cls-6" x="28.08" y="132.152" width="3.898" height="17.543" transform="translate(-113.192 125.153) rotate(-71.687)"/><rect class="cls-6" x="23.462" y="144.644" width="4.873" height="17.543" transform="translate(-127.888 129.822) rotate(-71.696)"/><rect class="cls-6" x="21.655" y="151.584" width="3.898" height="17.543" transform="translate(-136.058 132.444) rotate(-71.71)"/><path class="cls-1" d="M61.858,148.24c-3.749-1.24.044-22.9,8.47-48.382s18.292-45.135,22.039-43.9-.044,22.9-8.469,48.383S65.6,149.478,61.858,148.24Z"/><polygon class="cls-5" points="71.038 110.029 76.692 92.929 84.247 91.814 76.438 115.426 71.038 110.029"/></g></g></svg>