<svg xmlns="http://www.w3.org/2000/svg" viewBox="0 0 316.821 84.191"><defs><style>.cls-1{fill:#271f1c;}.cls-2{fill:#828c96;}.cls-3{fill:#f6ed4f;}.cls-4{fill:#f8ee50;}</style></defs><title>Asset 14</title><g id="Layer_2" data-name="Layer 2"><g id="Layer_2-2" data-name="Layer 2"><path class="cls-1" d="M292.784,21.558c3.288-2.618,11,1.6,17.233,9.428s8.615,16.29,5.326,18.908L286.427,80.762l-30.346-37.87Z"/><path class="cls-2" d="M261.35,69.732c8.381,10.527,19.248,15.819,24.271,11.819s2.3-15.775-6.079-26.3S260.294,39.431,255.271,43.43,252.97,59.205,261.35,69.732Z"/><path class="cls-3" d="M263.508,68.014c7.259,9.118,16.25,14.037,20.082,10.986s1.053-12.915-6.206-22.033S261.134,42.931,257.3,45.981,256.249,58.9,263.508,68.014Z"/><path class="cls-2" d="M288.247.352h0a2.77,2.77,0,0,1,2.77,2.77v51a0,0,0,0,1,0,0h-5.541a0,0,0,0,1,0,0v-51a2.77,2.77,0,0,1,2.77-2.77Z" transform="translate(576.494 54.472) rotate(180)"/><polygon class="cls-2" points="261.876 39.523 261.876 0.352 267.417 0.352 267.417 36.303 261.876 39.523"/><polygon class="cls-2" points="11.106 44.199 11.106 0 16.908 0 16.908 39.054 11.106 44.199"/><path class="cls-1" d="M30.586,18.933c2.355-3.718,11.437-2.188,20.285,3.418s14.11,13.164,11.754,16.882L44.6,79.693,1.587,52.629Z"/><path class="cls-2" d="M16.005,77.379c11.9,7.542,24.47,9.051,28.069,3.371s-3.133-16.4-15.036-23.94S4.568,47.759.97,53.439,4.1,69.838,16.005,77.379Z"/><path class="cls-4" d="M17.551,74.939c10.31,6.532,20.893,8.316,23.638,3.983S37.8,65.782,27.492,59.25,6.6,50.935,3.854,55.267,7.242,68.407,17.551,74.939Z"/><path class="cls-2" d="M38.722,56.306h0a2.9,2.9,0,0,0,2.9-2.9V0h-5.8V53.405A2.9,2.9,0,0,0,38.722,56.306Z"/></g></g></svg>