<svg xmlns="http://www.w3.org/2000/svg" viewBox="0 0 316.821 84.191"><defs><style>.cls-1{fill:#271f1c;}.cls-2{fill:#828c96;}.cls-3{fill:#f6ed4f;}.cls-4{fill:#f8ee50;}</style></defs><title>Asset 13</title><g id="Layer_2" data-name="Layer 2"><g id="Layer_2-2" data-name="Layer 2"><path class="cls-1" d="M24.037,21.558c-3.288-2.618-11,1.6-17.233,9.428s-8.615,16.29-5.326,18.908L30.394,80.762,60.74,42.892Z"/><path class="cls-2" d="M55.47,69.732C47.089,80.259,36.223,85.551,31.2,81.551s-2.3-15.775,6.079-26.3S56.527,39.431,61.55,43.43,63.851,59.205,55.47,69.732Z"/><path class="cls-3" d="M53.312,68.014C46.053,77.132,37.062,82.051,33.231,79s-1.053-12.915,6.206-22.033,16.25-14.036,20.082-10.986S60.572,58.9,53.312,68.014Z"/><path class="cls-2" d="M25.8.352h5.541a0,0,0,0,1,0,0v51a2.77,2.77,0,0,1-2.77,2.77h0a2.77,2.77,0,0,1-2.77-2.77v-51A0,0,0,0,1,25.8.352Z"/><polygon class="cls-2" points="54.945 39.523 54.945 0.352 49.404 0.352 49.404 36.303 54.945 39.523"/><polygon class="cls-2" points="305.715 44.199 305.715 0 299.912 0 299.912 39.054 305.715 44.199"/><path class="cls-1" d="M286.235,18.933c-2.355-3.718-11.437-2.188-20.285,3.418S251.84,35.515,254.2,39.233l18.025,40.46,43.014-27.064Z"/><path class="cls-2" d="M300.815,77.379c-11.9,7.542-24.469,9.051-28.068,3.371s3.133-16.4,15.036-23.94,24.47-9.051,28.068-3.371S312.718,69.838,300.815,77.379Z"/><path class="cls-4" d="M299.269,74.939c-10.309,6.532-20.892,8.316-23.637,3.983s3.387-13.14,13.7-19.672,20.892-8.315,23.638-3.983S309.579,68.407,299.269,74.939Z"/><path class="cls-2" d="M278.1,56.306h0a2.9,2.9,0,0,1-2.9-2.9V0H281V53.405A2.9,2.9,0,0,1,278.1,56.306Z"/></g></g></svg>