<svg xmlns="http://www.w3.org/2000/svg" viewBox="0 0 114 85"><defs><style>.cls-1{fill:none;stroke:#454c53;stroke-miterlimit:10;stroke-width:5px;}.cls-2{fill:#8d4666;}.cls-3{fill:#fff;}.cls-4{fill:#6dcecd;}.cls-5{fill:#454c53;}.cls-6{fill:#ffbd09;}</style></defs><title>Asset 5</title><g id="Layer_2" data-name="Layer 2"><g id="Objects"><rect class="cls-1" x="17.5" y="2.5" width="76" height="76" rx="11.112" ry="11.112"/><path class="cls-2" d="M114,73.249C114,79.532,108.971,85,102.834,85H11.185C5.05,85,0,79.532,0,73.249V25.61C0,19.328,5.05,14,11.185,14h91.649C108.971,14,114,19.328,114,25.61Z"/><path class="cls-3" d="M6.666,57.832A20.262,20.262,0,1,1,26.928,78.1,20.261,20.261,0,0,1,6.666,57.832Z"/><path class="cls-4" d="M9.933,57.832a16.994,16.994,0,1,1,17,16.994A16.994,16.994,0,0,1,9.933,57.832Z"/><path class="cls-3" d="M108.63,57.832A20.263,20.263,0,1,0,88.367,78.1,20.262,20.262,0,0,0,108.63,57.832Z"/><path class="cls-4" d="M105.363,57.832a16.995,16.995,0,1,0-17,16.994A17,17,0,0,0,105.363,57.832Z"/><path class="cls-3" d="M103.4,24.5c0,1.507-1.61,2.5-3.593,2.5H14.183c-1.988,0-3.6-.993-3.6-2.5h0c0-1.5,1.607-2.5,3.6-2.5H99.807c1.983,0,3.593,1,3.593,2.5Z"/><rect class="cls-5" x="46" y="33" width="21" height="9"/><rect class="cls-6" x="53" y="46" width="8" height="5"/><rect class="cls-6" x="53" y="53" width="8" height="8"/><rect class="cls-6" x="53" y="62" width="8" height="7"/><rect class="cls-6" x="53" y="71" width="8" height="6"/></g></g></svg>