<svg xmlns="http://www.w3.org/2000/svg" viewBox="0 0 452.178 51.016"><defs><style>.cls-1{fill:#37373f;}</style></defs><title>Asset 1</title><g id="Layer_2" data-name="Layer 2"><g id="OBJECTS"><path class="cls-1" d="M82.33.04a.881.881,0,0,0-.2-.04.809.809,0,0,0-.119.024C81.856.015,81.7,0,81.542,0H8.408c-.1,0-.189.011-.284.014C8.1.012,8.078,0,8.053,0a.928.928,0,0,0-.119.024A8.411,8.411,0,0,0,0,8.409V42.555a.938.938,0,0,0,.938.938H3.355v6.585a.938.938,0,0,0,1.876,0V43.493H84.688v6.585a.938.938,0,1,0,1.876,0V43.493h2.448a.938.938,0,0,0,.938-.938V8.409A8.418,8.418,0,0,0,82.33.04ZM8.991,1.876h4.858V41.617H8.991Zm6.734,0h4.859V41.617H15.725Zm6.735,0h4.858V41.617H22.46Zm6.735,0h4.857V41.617H29.2Zm6.734,0h4.858V41.617H35.929Zm6.734,0h4.859V41.617H42.663Zm6.735,0h4.858V41.617H49.4Zm6.734,0h4.859V41.617H56.132Zm6.735,0h4.858V41.617H62.867Zm6.734,0h4.858V41.617H69.6Zm6.734,0h4.859V41.617H76.335ZM1.876,8.409a6.543,6.543,0,0,1,5.239-6.4V41.617H1.876Zm86.2,33.208h-5V2.064a6.539,6.539,0,0,1,5,6.345Z"/><path class="cls-1" d="M172.887.04a.859.859,0,0,0-.2-.04.913.913,0,0,0-.118.024C172.414.015,172.258,0,172.1,0H98.965c-.1,0-.189.011-.284.014C98.656.012,98.635,0,98.61,0a.964.964,0,0,0-.119.024,8.411,8.411,0,0,0-7.934,8.385V42.555a.938.938,0,0,0,.938.938h2.417v6.585a.938.938,0,0,0,1.876,0V43.493h79.457v6.585a.938.938,0,0,0,1.876,0V43.493h2.448a.938.938,0,0,0,.938-.938V8.409A8.418,8.418,0,0,0,172.887.04ZM99.548,1.876h4.858V41.617H99.548Zm6.734,0h4.859V41.617h-4.859Zm6.735,0h4.858V41.617h-4.858Zm6.734,0h4.859V41.617h-4.859Zm6.735,0h4.858V41.617h-4.858Zm6.734,0h4.859V41.617H133.22Zm6.735,0h4.858V41.617h-4.858Zm6.734,0h4.858V41.617h-4.858Zm6.735,0h4.858V41.617h-4.858Zm6.734,0h4.859V41.617h-4.859Zm6.735,0h4.858V41.617h-4.858ZM92.433,8.409a6.542,6.542,0,0,1,5.239-6.4V41.617H92.433Zm86.2,33.208h-5V2.064a6.539,6.539,0,0,1,5,6.345Z"/><path class="cls-1" d="M263.444.04a.881.881,0,0,0-.2-.04.809.809,0,0,0-.119.024C262.97.015,262.815,0,262.656,0H189.522c-.1,0-.189.011-.284.014-.025,0-.046-.014-.071-.014a.9.9,0,0,0-.119.024,8.411,8.411,0,0,0-7.934,8.385V42.555a.938.938,0,0,0,.938.938h2.417v6.585a.938.938,0,1,0,1.876,0V43.493H265.8v6.585a.938.938,0,1,0,1.876,0V43.493h2.448a.938.938,0,0,0,.938-.938V8.409A8.418,8.418,0,0,0,263.444.04ZM190.105,1.876h4.858V41.617h-4.858Zm6.734,0H201.7V41.617h-4.859Zm6.735,0h4.858V41.617h-4.858Zm6.734,0h4.858V41.617h-4.858Zm6.735,0H221.9V41.617h-4.858Zm6.734,0h4.859V41.617h-4.859Zm6.735,0h4.858V41.617h-4.858Zm6.734,0h4.859V41.617h-4.859Zm6.735,0h4.858V41.617h-4.858Zm6.734,0h4.859V41.617h-4.859Zm6.735,0h4.858V41.617H257.45ZM182.99,8.409a6.542,6.542,0,0,1,5.239-6.4V41.617H182.99Zm86.2,33.208h-5V2.064a6.54,6.54,0,0,1,5,6.345Z"/><path class="cls-1" d="M354,.04a.881.881,0,0,0-.2-.04.771.771,0,0,0-.118.024c-.157-.009-.313-.024-.472-.024H280.079c-.1,0-.189.011-.284.014-.025,0-.046-.014-.072-.014a.964.964,0,0,0-.119.024,8.412,8.412,0,0,0-7.933,8.385V42.555a.938.938,0,0,0,.938.938h2.417v6.585a.938.938,0,0,0,1.876,0V43.493h79.457v6.585a.938.938,0,1,0,1.876,0V43.493h2.448a.938.938,0,0,0,.938-.938V8.409A8.418,8.418,0,0,0,354,.04ZM280.662,1.876h4.858V41.617h-4.858Zm6.735,0h4.858V41.617H287.4Zm6.734,0h4.859V41.617h-4.859Zm6.735,0h4.858V41.617h-4.858Zm6.734,0h4.858V41.617H307.6Zm6.734,0h4.859V41.617h-4.859Zm6.735,0h4.858V41.617h-4.858Zm6.734,0h4.859V41.617H327.8Zm6.735,0H339.4V41.617h-4.858Zm6.734,0h4.858V41.617h-4.858Zm6.734,0h4.859V41.617h-4.859ZM273.547,8.409a6.544,6.544,0,0,1,5.238-6.4V41.617h-5.238Zm86.2,33.208h-5V2.064a6.539,6.539,0,0,1,5,6.345Z"/><path class="cls-1" d="M444.559.04a.878.878,0,0,0-.2-.04.913.913,0,0,0-.118.024c-.158-.009-.313-.024-.473-.024H370.636c-.1,0-.189.011-.284.014-.025,0-.046-.014-.071-.014a.944.944,0,0,0-.12.024,8.413,8.413,0,0,0-7.934,8.385V42.555a.938.938,0,0,0,.938.938h2.418v6.585a.938.938,0,0,0,1.876,0V43.493h79.456v6.585a.938.938,0,1,0,1.876,0V43.493h2.449a.937.937,0,0,0,.938-.938V8.409A8.419,8.419,0,0,0,444.559.04Zm-73.34,1.836h4.858V41.617h-4.858Zm6.734,0h4.859V41.617h-4.859Zm6.735,0h4.858V41.617h-4.858Zm6.734,0h4.859V41.617h-4.859Zm6.735,0h4.858V41.617h-4.858Zm6.734,0h4.858V41.617h-4.858Zm6.734,0h4.859V41.617h-4.859Zm6.735,0h4.858V41.617H418.36Zm6.734,0h4.859V41.617h-4.859Zm6.735,0h4.858V41.617h-4.858Zm6.734,0h4.859V41.617h-4.859ZM364.1,8.409a6.542,6.542,0,0,1,5.239-6.4V41.617H364.1Zm86.2,33.208h-5V2.064a6.539,6.539,0,0,1,5,6.345Z"/></g></g></svg>