<svg xmlns="http://www.w3.org/2000/svg" viewBox="0 0 72.47 77.829"><defs><style>.cls-1{isolation:isolate;}.cls-2{fill:#fdde91;}.cls-3{fill:#c48019;}.cls-4{fill:#00a8a9;}.cls-5{fill:#00ade4;}.cls-5,.cls-7{opacity:0.5;mix-blend-mode:multiply;}.cls-6{fill:#fbe3cd;}.cls-7{fill:#ecd7c3;}.cls-13,.cls-8{fill:#ea2316;}.cls-10,.cls-9{fill:#7e5600;}.cls-10{mix-blend-mode:screen;}.cls-11{fill:#e3e583;}.cls-12{fill:#1d1d1b;}.cls-13{stroke:#000;stroke-linecap:round;stroke-linejoin:round;stroke-width:0.2px;}</style></defs><title>Asset 3</title><g class="cls-1"><g id="Layer_2" data-name="Layer 2"><g id="Layer_1-2" data-name="Layer 1"><path class="cls-2" d="M63.425,70.373A173.748,173.748,0,0,0,36.11,67.044c-11.985-.644-22.636-.36-29.188.6l-6.74-.326L.1,70.291c-.153,2.856,15.719,6.031,35.454,7.09s35.855-.392,36.009-3.248V70.766Z"/><path d="M48.02,77.829h0c-3.992,0-8.187-.118-12.469-.348C15.456,76.4-.157,73.24,0,70.285l.081-2.968a.1.1,0,0,1,.031-.071.109.109,0,0,1,.074-.027l6.738.325A121.872,121.872,0,0,1,23.647,66.6c3.99,0,8.185.115,12.469.346a174.424,174.424,0,0,1,27.331,3.331l8.121.39a.1.1,0,0,1,.1.1v3.367C71.543,76.381,62.261,77.829,48.02,77.829ZM.279,67.425.2,70.294C.131,71.6,3.845,73.1,10.39,74.41a185.916,185.916,0,0,0,25.17,2.871c4.279.231,8.471.347,12.459.347,13.911,0,23.332-1.406,23.444-3.5V70.862l-8.043-.389A174.862,174.862,0,0,0,36.1,67.144c-4.28-.23-8.471-.346-12.458-.346a121.708,121.708,0,0,0-16.711.946Z"/><path class="cls-3" d="M71.564,70.766c-.154,2.853-16.276,4.308-36.009,3.248S-.052,69.778.1,66.924s16.276-4.31,36.009-3.248S71.717,67.911,71.564,70.766Z"/><path d="M48.019,74.459c-3.991,0-8.187-.115-12.469-.346C15.456,73.033-.157,69.872,0,66.918c.122-2.242,9.4-3.689,23.644-3.689,3.991,0,8.187.116,12.471.348,20.092,1.08,35.706,4.241,35.548,7.2C71.543,73.013,62.262,74.459,48.019,74.459ZM23.645,63.428C9.735,63.428.314,64.834.2,66.928c-.07,1.307,3.644,2.805,10.189,4.114a186.062,186.062,0,0,0,25.17,2.872c4.28.231,8.472.347,12.459.347,13.911,0,23.332-1.407,23.444-3.5.07-1.3-3.643-2.8-10.187-4.112A185.612,185.612,0,0,0,36.1,63.777C31.825,63.545,27.632,63.428,23.645,63.428Z"/><path class="cls-4" d="M2.1,46.03l-.65,20.44c-.147,2.746,15.129,5.8,34.12,6.823s34.506-.379,34.655-3.126L71.565,49.59Z"/><path class="cls-5" d="M52.946,48.636a18.513,18.513,0,0,1-3.808,10.618,21.486,21.486,0,0,1-9.405,6.522,42.093,42.093,0,0,1-11.421,1.988,90.2,90.2,0,0,1-15.65-.261A57.151,57.151,0,0,1,6.1,66.55a38.934,38.934,0,0,0-4.624-.916l-.027.836c-.147,2.746,15.129,5.8,34.12,6.823s34.506-.379,34.655-3.126L71.565,49.59Z"/><path d="M47.561,73.727h0c-3.842,0-7.879-.112-12-.333-19.338-1.04-34.367-4.085-34.214-6.93l.648-20.439a.1.1,0,0,1,.033-.069A.092.092,0,0,1,2.1,45.93L71.57,49.491a.093.093,0,0,1,.07.033.1.1,0,0,1,.024.073L70.319,70.174C70.2,72.333,61.269,73.727,47.561,73.727ZM2.193,46.135,1.545,66.473c-.067,1.257,3.506,2.7,9.8,3.957A179.517,179.517,0,0,0,35.57,73.195c4.119.219,8.153.332,11.991.332,13.384,0,22.451-1.352,22.558-3.366l1.339-20.475Z"/><path class="cls-2" d="M64.23,46.062a173.8,173.8,0,0,0-27.315-3.327c-11.986-.645-22.638-.362-29.19.6L.987,43.009.906,45.981c-.153,2.855,15.719,6.029,35.453,7.092s35.855-.4,36.008-3.249V46.455Z"/><path d="M48.825,53.519h0c-3.99,0-8.185-.116-12.468-.347C16.262,52.092.648,48.929.806,45.977l.079-2.972a.111.111,0,0,1,.034-.071.116.116,0,0,1,.073-.026l6.739.326a121.635,121.635,0,0,1,16.72-.947c3.991,0,8.186.117,12.469.349a174.529,174.529,0,0,1,27.333,3.328l8.12.391a.1.1,0,0,1,.1.1v3.369C72.347,52.072,63.066,53.519,48.825,53.519ZM1.084,43.114l-.078,2.871C.936,47.291,4.65,48.791,11.194,50.1A186.126,186.126,0,0,0,36.365,52.97c4.28.23,8.471.35,12.457.35,13.911,0,23.333-1.408,23.446-3.5V46.55l-8.043-.389A174.921,174.921,0,0,0,36.91,42.835c-4.28-.23-8.471-.348-12.459-.348a121.649,121.649,0,0,0-16.71.947Z"/><path class="cls-6" d="M72.367,46.455c-.153,2.854-16.275,4.31-36.008,3.247S.753,45.466.906,42.613s16.276-4.308,36.009-3.248S72.522,43.6,72.367,46.455Z"/><path class="cls-7" d="M36.915,39.365C17.182,38.305,1.06,39.758.906,42.613s15.719,6.03,35.453,7.089,35.855-.393,36.008-3.247S56.65,40.427,36.915,39.365Zm-3.7,8.738C18.856,47.33,7.306,45.022,7.418,42.945s11.841-3.136,26.2-2.363,25.908,3.08,25.8,5.158S47.57,48.874,33.213,48.1Z"/><path class="cls-8" d="M55.982,45.314c-.079,1.442-8.226,2.176-18.2,1.641s-18-2.14-17.919-3.583,8.226-2.177,18.2-1.642S56.06,43.87,55.982,45.314Z"/><path d="M48.822,50.151c-3.99,0-8.185-.12-12.468-.349C16.262,48.722.648,45.562.806,42.608c.12-2.242,9.4-3.69,23.643-3.69,3.991,0,8.187.117,12.471.347,20.093,1.081,35.707,4.241,35.549,7.2C72.347,48.7,63.066,50.151,48.822,50.151ZM24.449,39.119c-13.909,0-23.33,1.406-23.443,3.5-.07,1.3,3.644,2.8,10.188,4.113A186.256,186.256,0,0,0,36.365,49.6c4.28.229,8.471.345,12.457.345,13.911,0,23.333-1.405,23.446-3.5.07-1.306-3.644-2.8-10.188-4.115a186.763,186.763,0,0,0-25.17-2.871C32.628,39.236,28.437,39.119,24.449,39.119Z"/><path class="cls-9" d="M11.353,8.683q.8,1.482,1.592,2.969c1.279,2.384,2.541,4.777,3.828,7.159q2.39,4.42,4.741,8.87c1.438,2.715,2.949,5.394,4.364,8.121A36.169,36.169,0,0,0,28.7,40.911a8.121,8.121,0,0,0,.846,1.095c.565.518,1.3,1.108,1.141,1.966-.143.785-.933,1.495-1.731.987-.609-.388-.616-1.156-.657-1.8a3.988,3.988,0,0,0-.566-1.849C26.755,39.531,9.84,11.22,9.84,11.22s-1.958-2.4-1.246-3.382S10.506,7.1,11.353,8.683Z"/><path d="M29.509,45.232a1.126,1.126,0,0,1-.606-.187,2.018,2.018,0,0,1-.7-1.756l-.008-.121a3.853,3.853,0,0,0-.553-1.808C26.68,39.6,9.924,11.556,9.754,11.272c-.074-.088-1.99-2.463-1.241-3.493a1.35,1.35,0,0,1,1.1-.623c.661,0,1.329.54,1.832,1.48l1.591,2.969q.768,1.431,1.532,2.867,1.143,2.149,2.3,4.291c1.474,2.726,3.025,5.63,4.743,8.869.624,1.181,1.273,2.374,1.9,3.528.818,1.5,1.662,3.052,2.464,4.6.224.432.443.878.664,1.325a23.616,23.616,0,0,0,2.15,3.771c.08.107.161.222.241.34a4.561,4.561,0,0,0,.593.743l.117.1c.538.49,1.209,1.1,1.054,1.953A1.445,1.445,0,0,1,29.509,45.232ZM9.61,7.356a1.157,1.157,0,0,0-.936.542c-.658.9,1.225,3.237,1.244,3.258.177.3,16.935,28.345,17.9,30.105a4.109,4.109,0,0,1,.579,1.893l.007.123a1.877,1.877,0,0,0,.6,1.6.925.925,0,0,0,.5.156,1.241,1.241,0,0,0,1.081-1.078c.135-.744-.464-1.288-.991-1.765l-.118-.109a4.545,4.545,0,0,1-.622-.774c-.081-.116-.158-.229-.236-.333a23.688,23.688,0,0,1-2.171-3.8c-.22-.445-.437-.888-.662-1.318-.8-1.542-1.644-3.093-2.461-4.595-.629-1.154-1.278-2.346-1.9-3.527-1.716-3.241-3.268-6.143-4.741-8.868q-1.157-2.142-2.3-4.293-.765-1.434-1.53-2.868L11.265,8.729C10.8,7.857,10.2,7.356,9.61,7.356Z"/><path class="cls-10" d="M9.484,9.263l16.292,27.9S14.113,13.892,9.484,9.263Z"/><path class="cls-10" d="M28.648,42.735s-.264,1.528.667,1.8c0,0-.721-1.524,0-1.8S28.994,42.31,28.648,42.735Z"/><path class="cls-9" d="M50.83,2.655q-.463,1.619-.924,3.238c-.742,2.6-1.5,5.2-2.236,7.805q-1.362,4.839-2.769,9.668c-.857,2.952-1.638,5.926-2.519,8.871a35.912,35.912,0,0,0-1.529,5.632,7.966,7.966,0,0,0-.155,1.375c.046.764.16,1.7-.55,2.2a1.184,1.184,0,0,1-1.93-.493c-.166-.7.363-1.259.78-1.751a3.962,3.962,0,0,0,.881-1.721c.537-1.959,8.1-34.06,8.1-34.06s.267-3.09,1.461-3.3S51.322.929,50.83,2.655Z"/><path d="M38.425,41.532a1.115,1.115,0,0,1-.3-.555,2.016,2.016,0,0,1,.721-1.744l.08-.092a3.868,3.868,0,0,0,.861-1.685c.53-1.934,8.021-33.735,8.1-34.056.01-.114.286-3.155,1.54-3.371A1.351,1.351,0,0,1,50.64.344a2.339,2.339,0,0,1,.286,2.338L50,5.922c-.3,1.041-.6,2.083-.9,3.125q-.676,2.339-1.339,4.678c-.84,2.984-1.746,6.147-2.769,9.669-.374,1.283-.737,2.59-1.09,3.855-.458,1.648-.932,3.352-1.429,5.017-.141.465-.292.935-.447,1.411a23.711,23.711,0,0,0-1.081,4.207c-.015.13-.038.269-.062.409a4.425,4.425,0,0,0-.091.946l.011.159a2.236,2.236,0,0,1-.6,2.132A1.443,1.443,0,0,1,38.425,41.532ZM50.5.489A1.159,1.159,0,0,0,49.453.225c-1.1.191-1.374,3.178-1.377,3.207-.077.337-7.569,32.138-8.1,34.077a4.072,4.072,0,0,1-.9,1.761l-.079.094c-.386.449-.822.959-.677,1.566a.908.908,0,0,0,.248.46,1.242,1.242,0,0,0,1.525-.022c.615-.442.563-1.246.518-1.959l-.011-.158a4.586,4.586,0,0,1,.095-.991c.022-.139.044-.271.061-.4a23.777,23.777,0,0,1,1.09-4.244c.153-.471.3-.942.443-1.406.5-1.664.972-3.366,1.43-5.011.352-1.267.716-2.577,1.089-3.859,1.023-3.522,1.929-6.682,2.769-9.668.44-1.56.89-3.12,1.339-4.678q.449-1.563.9-3.126l.923-3.24A2.154,2.154,0,0,0,50.5.489Z"/><path class="cls-10" d="M49.084,1.771,41.362,33.14S49.186,8.314,49.084,1.771Z"/><path class="cls-10" d="M39.543,39.141s-1.253.914-.773,1.757c0,0,.543-1.6,1.253-1.292S40.089,39.076,39.543,39.141Z"/><path class="cls-11" d="M47.5,76.136h-.013a.4.4,0,0,1-.367-.272L39.485,53.042,29.932,75.375a.389.389,0,0,1-.38.242.4.4,0,0,1-.365-.264L20.421,51.118,8.691,72.506a.4.4,0,0,1-.742-.1L1.976,46.009a.4.4,0,0,1,.782-.177L8.5,71.193l11.65-21.237a.4.4,0,0,1,.727.059L29.6,74.125l9.566-22.367a.408.408,0,0,1,.385-.242.4.4,0,0,1,.364.272l7.628,22.8,9.605-23.217a.392.392,0,0,1,.382-.249.4.4,0,0,1,.367.269l7.613,21.764,5.06-24.006a.4.4,0,0,1,.783.165l-5.355,25.41a.4.4,0,0,1-.77.051l-7.74-22.127L47.868,75.89A.4.4,0,0,1,47.5,76.136Z"/><path class="cls-12" d="M47.5,76.271l-.021,0a.536.536,0,0,1-.486-.364L39.469,53.416l-9.415,22.01a.525.525,0,0,1-.48.325h-.03a.526.526,0,0,1-.482-.351L20.4,51.443,8.808,72.571a.536.536,0,0,1-.99-.14L1.846,46.039a.53.53,0,0,1,.069-.4.523.523,0,0,1,.334-.236.543.543,0,0,1,.639.4L8.549,70.821,20.028,49.894a.528.528,0,0,1,.513-.277.536.536,0,0,1,.458.352l8.606,23.792L39.038,51.7a.538.538,0,0,1,.5-.323.544.544,0,0,1,.5.364L47.55,74.211l9.471-22.888a.517.517,0,0,1,.514-.329.537.537,0,0,1,.483.357l7.455,21.311,4.96-23.538a.542.542,0,0,1,.634-.41.535.535,0,0,1,.412.633l-5.356,25.41a.536.536,0,0,1-.488.422H65.6a.531.531,0,0,1-.5-.356l-7.625-21.8-9.48,22.916A.534.534,0,0,1,47.5,76.271Zm-8-23.606,7.746,23.156a.264.264,0,0,0,.243.181l.01.134V76a.264.264,0,0,0,.247-.165l9.747-23.56,7.857,22.458a.267.267,0,0,0,.251.178.271.271,0,0,0,.261-.211l5.357-25.41a.269.269,0,0,0-.038-.2.265.265,0,0,0-.169-.116.275.275,0,0,0-.317.208L65.537,73.656,57.765,51.441a.267.267,0,0,0-.5-.015L47.525,74.972,39.783,51.831a.268.268,0,0,0-.242-.183h0a.272.272,0,0,0-.256.164l-9.7,22.677-8.836-24.43a.269.269,0,0,0-.231-.175l-.028,0a.262.262,0,0,0-.226.141L8.444,71.566l-5.816-25.7a.272.272,0,0,0-.319-.2.278.278,0,0,0-.168.12.26.26,0,0,0-.034.2l5.972,26.39a.269.269,0,0,0,.495.073L20.446,50.8l8.867,24.511a.261.261,0,0,0,.243.175h0a.26.26,0,0,0,.251-.16Z"/><path class="cls-13" d="M3.29,45.921a1.016,1.016,0,0,1-.923,1.089,1.1,1.1,0,0,1,0-2.179A1.017,1.017,0,0,1,3.29,45.921Z"/><path class="cls-13" d="M21.419,50.151A.936.936,0,1,1,20.5,49.06,1.016,1.016,0,0,1,21.419,50.151Z"/><path class="cls-13" d="M40.452,51.528a.935.935,0,1,1-.923-1.091A1.017,1.017,0,0,1,40.452,51.528Z"/><path class="cls-13" d="M58.437,51.528a.936.936,0,1,1-.923-1.091A1.018,1.018,0,0,1,58.437,51.528Z"/><path class="cls-13" d="M71.879,49.237a.936.936,0,1,1-.923-1.091A1.016,1.016,0,0,1,71.879,49.237Z"/><path class="cls-13" d="M9.263,72.333a1.018,1.018,0,0,1-.946,1.07,1.1,1.1,0,0,1,.046-2.179A1.016,1.016,0,0,1,9.263,72.333Z"/><path class="cls-13" d="M30.486,75.237a.935.935,0,1,1-.9-1.109A1.017,1.017,0,0,1,30.486,75.237Z"/><path class="cls-13" d="M48.42,75.756a.935.935,0,1,1-.9-1.109A1.012,1.012,0,0,1,48.42,75.756Z"/><path class="cls-13" d="M66.523,74.667a.935.935,0,1,1-.9-1.108A1.015,1.015,0,0,1,66.523,74.667Z"/></g></g></g></svg>