<svg xmlns="http://www.w3.org/2000/svg" xmlns:xlink="http://www.w3.org/1999/xlink" viewBox="0 0 280.559 467.056"><defs><style>.cls-1{isolation:isolate;}.cls-2{fill:url(#radial-gradient);}.cls-3{fill:url(#radial-gradient-2);}.cls-4{opacity:0.3;mix-blend-mode:screen;fill:url(#linear-gradient);}.cls-5{fill:url(#radial-gradient-3);}.cls-6{fill:url(#linear-gradient-2);}.cls-7{fill:url(#radial-gradient-4);}.cls-8{fill:url(#radial-gradient-5);}.cls-9{fill:url(#radial-gradient-6);}.cls-10{fill:url(#radial-gradient-7);}.cls-11{fill:url(#radial-gradient-8);}.cls-12{fill:url(#radial-gradient-9);}.cls-13{fill:url(#radial-gradient-10);}.cls-14{fill:url(#radial-gradient-11);}.cls-15{fill:url(#linear-gradient-3);}.cls-16{fill:url(#radial-gradient-12);}.cls-17{fill:url(#radial-gradient-13);}.cls-18{fill:url(#radial-gradient-14);}.cls-19{fill:url(#radial-gradient-15);}.cls-20{fill:url(#radial-gradient-16);}.cls-21{fill:url(#radial-gradient-17);}.cls-22{fill:url(#radial-gradient-18);}.cls-23{fill:url(#linear-gradient-4);}.cls-24{fill:url(#radial-gradient-19);}.cls-25{fill:url(#radial-gradient-20);}.cls-26{fill:url(#radial-gradient-21);}.cls-27{fill:url(#radial-gradient-22);}.cls-28{fill:url(#radial-gradient-23);}.cls-29{fill:url(#radial-gradient-24);}</style><radialGradient id="radial-gradient" cx="2205.258" cy="201.257" r="95.107" gradientTransform="translate(-7793.736 -611.79) scale(3.704)" gradientUnits="userSpaceOnUse"><stop offset="0" stop-color="#515254"/><stop offset="0.186" stop-color="#858587"/><stop offset="0.371" stop-color="#b0b1b2"/><stop offset="0.55" stop-color="#d3d3d3"/><stop offset="0.718" stop-color="#ebebeb"/><stop offset="0.872" stop-color="#fafafa"/><stop offset="1" stop-color="#fff"/></radialGradient><radialGradient id="radial-gradient-2" cx="2169.623" cy="159.676" r="154.752" gradientTransform="translate(-7471.513 -611.79) scale(3.439 3.704)" gradientUnits="userSpaceOnUse"><stop offset="0" stop-color="#fff"/><stop offset="0.151" stop-color="#d8d8d8"/><stop offset="0.336" stop-color="#afafaf"/><stop offset="0.517" stop-color="#8f8f8f"/><stop offset="0.692" stop-color="#797979"/><stop offset="0.856" stop-color="#6b6b6b"/><stop offset="1" stop-color="#666"/></radialGradient><linearGradient id="linear-gradient" x1="43.38" y1="93.499" x2="-49.62" y2="243.499" gradientTransform="matrix(-1, 0, 0, 1, 73.322, 0)" gradientUnits="userSpaceOnUse"><stop offset="0" stop-color="#fff"/><stop offset="1" stop-color="#c5e7eb"/></linearGradient><radialGradient id="radial-gradient-3" cx="2204.878" cy="250.857" r="26.27" gradientTransform="translate(-7471.513 -611.79) scale(3.439 3.704)" gradientUnits="userSpaceOnUse"><stop offset="0.414" stop-color="#515254"/><stop offset="0.812" stop-color="#515254"/><stop offset="0.9" stop-color="#323335"/><stop offset="1" stop-color="#0a0b0d"/></radialGradient><linearGradient id="linear-gradient-2" x1="2360.406" y1="225.673" x2="2452.783" y2="390.045" gradientTransform="translate(-2303.103)" gradientUnits="userSpaceOnUse"><stop offset="0" stop-color="#0d0f11"/><stop offset="0.414" stop-color="#6c6d70"/><stop offset="0.608" stop-color="#6c6d70"/><stop offset="0.749" stop-color="#4d4e51"/><stop offset="1" stop-color="#0d0f11"/></linearGradient><radialGradient id="radial-gradient-4" cx="2210.475" cy="263.193" r="26.74" gradientTransform="translate(-7471.513 -611.79) scale(3.439 3.704)" gradientUnits="userSpaceOnUse"><stop offset="0" stop-color="#515254"/><stop offset="0.172" stop-color="#515254"/><stop offset="0.561" stop-color="#323335"/><stop offset="1" stop-color="#0a0b0d"/></radialGradient><radialGradient id="radial-gradient-5" cx="2202.21" cy="245.522" r="13.608" xlink:href="#radial-gradient-4"/><radialGradient id="radial-gradient-6" cx="2203.552" cy="226.084" r="1.545" xlink:href="#radial-gradient-4"/><radialGradient id="radial-gradient-7" cx="2203.552" cy="273.837" r="1.549" xlink:href="#radial-gradient-4"/><radialGradient id="radial-gradient-8" cx="2228.44" cy="250.936" r="1.634" xlink:href="#radial-gradient-4"/><radialGradient id="radial-gradient-9" cx="2181.077" cy="249.211" r="1.47" xlink:href="#radial-gradient-4"/><radialGradient id="radial-gradient-10" cx="2182.512" cy="217.958" r="59.667" gradientTransform="translate(-7471.513 -611.79) scale(3.439 3.704)" gradientUnits="userSpaceOnUse"><stop offset="0" stop-color="#515254"/><stop offset="0.261" stop-color="#333436"/><stop offset="0.527" stop-color="#1c1d1f"/><stop offset="0.779" stop-color="#0f1012"/><stop offset="1" stop-color="#0a0b0d"/></radialGradient><radialGradient id="radial-gradient-11" cx="2204.143" cy="197.744" r="15.694" xlink:href="#radial-gradient-3"/><linearGradient id="linear-gradient-3" x1="2380.436" y1="67.814" x2="2433.695" y2="162.581" xlink:href="#linear-gradient-2"/><radialGradient id="radial-gradient-12" cx="2207.587" cy="205.137" r="15.976" xlink:href="#radial-gradient-4"/><radialGradient id="radial-gradient-13" cx="2202.799" cy="194.596" r="8.137" xlink:href="#radial-gradient-4"/><radialGradient id="radial-gradient-14" cx="2203.624" cy="182.981" r="0.925" xlink:href="#radial-gradient-4"/><radialGradient id="radial-gradient-15" cx="2203.624" cy="211.528" r="0.924" xlink:href="#radial-gradient-4"/><radialGradient id="radial-gradient-16" cx="2218.261" cy="196.539" r="0.956" xlink:href="#radial-gradient-4"/><radialGradient id="radial-gradient-17" cx="2189.982" cy="198.001" r="0.897" xlink:href="#radial-gradient-4"/><radialGradient id="radial-gradient-18" cx="2225.974" cy="217.053" r="7.374" xlink:href="#radial-gradient-3"/><linearGradient id="linear-gradient-4" x1="2471.459" y1="167.31" x2="2496.484" y2="211.838" xlink:href="#linear-gradient-2"/><radialGradient id="radial-gradient-19" cx="2227.593" cy="220.527" r="7.506" xlink:href="#radial-gradient-4"/><radialGradient id="radial-gradient-20" cx="2225.342" cy="215.574" r="3.823" xlink:href="#radial-gradient-4"/><radialGradient id="radial-gradient-21" cx="2225.73" cy="210.118" r="0.434" xlink:href="#radial-gradient-4"/><radialGradient id="radial-gradient-22" cx="2225.73" cy="223.53" r="0.434" xlink:href="#radial-gradient-4"/><radialGradient id="radial-gradient-23" cx="2232.608" cy="216.487" r="0.449" xlink:href="#radial-gradient-4"/><radialGradient id="radial-gradient-24" cx="2219.321" cy="217.174" r="0.421" xlink:href="#radial-gradient-4"/></defs><title>Asset 2</title><g class="cls-1"><g id="Layer_2" data-name="Layer 2"><g id="objects"><polygon class="cls-2" points="228.084 0 280.559 31.491 280.559 443.344 228.084 467.056 228.084 0"/><path class="cls-3" d="M228.084,467.056,107.741,454.163Q51.925,448.177,0,442.621V24.436q51.954-5.562,107.741-11.544Q165.653,6.685,228.084,0Z"/><path class="cls-4" d="M1.4,26.776V440.845q15.29,1.621,30.911,3.28c4.571-40.7,9.924-96.362,33.167-166.435C89.291,205.974,132.763,116.509,218.242,3.819,140.808,12.024,68.7,19.656,1.4,26.776Z"/><path class="cls-5" d="M199.973,320.962c-.043,56.293-43.1,98.091-93.947,93.657-48.444-4.305-86.039-49.393-86.082-100.97.043-51.577,37.638-93.606,86.082-93.975C156.866,219.378,199.93,264.676,199.973,320.962Z"/><path class="cls-6" d="M182.952,320.275c-.036,46.087-35.143,80.617-76.926,77.322-40.147-3.233-71.528-40.473-71.564-83.358.036-42.886,31.417-77.565,71.564-77.539C147.809,236.8,182.916,274.181,182.952,320.275Z"/><path class="cls-7" d="M179.834,320.145c-.032,44.228-33.692,77.409-73.808,74.3-38.606-3.053-68.837-38.834-68.858-80.1.021-41.262,30.252-74.584,68.858-74.5C146.142,240,179.8,275.924,179.834,320.145Z"/><path class="cls-8" d="M133.8,318.275c-.008,16.641-12.522,29.431-27.772,28.6-15.016-.839-27.032-14.624-27.04-30.827.008-16.2,12.024-29.011,27.04-28.632C121.276,287.828,133.79,301.633,133.8,318.275Z"/><path class="cls-9" d="M109.148,227.777a3.122,3.122,0,1,1-3.122-3.371A3.265,3.265,0,0,1,109.148,227.777Z"/><path class="cls-10" d="M109.148,404.911a2.951,2.951,0,0,1-3.122,3.121,3.6,3.6,0,0,1-3.1-3.635,2.95,2.95,0,0,1,3.1-3.125A3.606,3.606,0,0,1,109.148,404.911Z"/><path class="cls-11" d="M195.047,320.058a3.3,3.3,0,0,1-3.39,3.386,3.628,3.628,0,0,1-3.367-3.654,3.285,3.285,0,0,1,3.367-3.385A3.631,3.631,0,0,1,195.047,320.058Z"/><path class="cls-12" d="M31.6,313.472a2.951,2.951,0,0,1-2.887,3.136,3.251,3.251,0,0,1-2.886-3.371,2.945,2.945,0,0,1,2.886-3.133A3.252,3.252,0,0,1,31.6,313.472Z"/><path class="cls-13" d="M38.2,305.294V301.7a83.215,83.215,0,0,0-1.027,12.648A84.919,84.919,0,0,0,38.2,327.082V323.74c1.982.087,3.971.181,5.968.267v6.3c-1.838-.086-3.683-.173-5.513-.268.123.673.3,1.325.442,1.987,1.685.079,3.378.17,5.071.249v6.3c-1.157-.058-2.315-.123-3.465-.185.2.677.419,1.331.644,2,.932.051,1.881.1,2.821.148v6.25c-.159-.006-.318-.017-.478-.025.7,1.682,1.433,3.35,2.236,4.978v-2.887c2,.116,4.008.231,6.011.351v6.326c-1.381-.087-2.771-.166-4.152-.253.376.676.737,1.37,1.128,2.04l3.024.184v4.5c.948,1.374,1.967,2.684,2.98,3.993,1.613.109,3.233.209,4.847.318v5.317c1.049,1.114,2.12,2.192,3.226,3.241,1.571.109,3.147.217,4.717.332V379c.586.463,1.2.893,1.8,1.338v-5l6.148.434v6.4c-1.367-.1-2.734-.206-4.093-.3,1.128.788,2.293,1.526,3.472,2.25.209.014.419.032.621.051v.329c.609.361,1.209.748,1.824,1.095v-1.3q3.092.23,6.2.463v3.95c.608.275,1.212.564,1.834.818V384.9c2.076.151,4.159.311,6.247.463v6.409a67.188,67.188,0,0,0,14.271,2.68,65.4,65.4,0,0,0,14.241-.43l-1.986-.152v-6.539q3.224.238,6.452.484v5.339c.633-.131,1.281-.232,1.907-.38v-4.821q3.245.243,6.51.484V390.8c.64-.231,1.284-.469,1.917-.719v-1.5c.973.065,1.946.148,2.919.216,1.9-.868,3.762-1.815,5.581-2.86v-5.4q3.3.228,6.616.463v.607c1.07-.8,2.148-1.6,3.171-2.459l-1.226-.087v-6.641c2.221.145,4.441.3,6.67.442v1.186c.955-1,1.9-2.025,2.806-3.082-.274-.017-.556-.043-.838-.057v-6.666c1.909.112,3.819.235,5.736.354,1.078-1.588,2.061-3.259,3.023-4.944V356c.637.033,1.267.08,1.907.108.336-.665.64-1.356.959-2.036-.956-.055-1.911-.1-2.866-.163v-6.641q2.757.142,5.534.3c.247-.687.5-1.367.727-2.058-2.094-.112-4.177-.22-6.261-.329v-6.695q3.375.168,6.779.337v5.24a78.129,78.129,0,0,0,2-8v-5.968c.293.015.578.022.868.036.094-.694.217-1.378.281-2.083l-1.149-.054v-6.72c.491.018.983.043,1.475.062.007-.4.058-.782.058-1.187,0-.308-.044-.607-.044-.911-.5-.023-.99-.044-1.489-.062v-6.723c.39.013.773.028,1.164.043-.066-.709-.174-1.4-.253-2.113-.3-.006-.608-.021-.911-.032v-6.239a83,83,0,0,0-2-8.16v5.519l-6.779-.217v-6.644q3.18.091,6.381.184c-.231-.715-.5-1.41-.738-2.119-1.881-.05-3.769-.1-5.643-.156v-6.694c1,.021,1.99.051,2.989.072-.312-.709-.626-1.418-.955-2.112-.681-.019-1.353-.036-2.034-.051v-3.924c-.9-1.668-1.815-3.328-2.835-4.916q-2.967-.06-5.924-.115v-6.67c.354.007.715.015,1.078.021-.977-1.236-2-2.416-3.046-3.584v1.451q-3.344-.045-6.67-.1V259.25l1.505.023c-1.121-1.042-2.275-2.029-3.45-3v.882c-2.214-.029-4.416-.05-6.616-.079V251.41c-1.657-1.078-3.332-2.1-5.056-3.039-1.147-.007-2.3-.018-3.444-.026v-1.771c-.64-.3-1.277-.594-1.917-.879v2.637q-3.261-.029-6.51-.047V243.2c-.626-.2-1.274-.347-1.907-.535v5.606l-6.452-.044v-6.481c1.07,0,2.145.007,3.219.014a66.934,66.934,0,0,0-15.474-1.913,65.33,65.33,0,0,0-15.241,1.79h.97v6.4L85.508,248v-4.9c-.622.207-1.226.456-1.834.673v4.21l-6.2-.043v-1.556c-.615.3-1.215.637-1.824.952v.589c-.368,0-.737-.007-1.106-.007-1.151.629-2.278,1.277-3.386,1.968,1.5.015,2.995.025,4.492.036v6.4q-3.079-.039-6.148-.072v-5.263c-.6.4-1.215.777-1.8,1.193v4.052l-5.027-.059c-1.006.872-1.961,1.8-2.916,2.724v5.577c-1.686-.028-3.371-.05-5.057-.079-.947,1.143-1.894,2.286-2.77,3.494v4.76l-3.19-.059c-.391.63-.724,1.3-1.1,1.947,1.425.029,2.865.057,4.29.087v6.322c-2-.043-4.015-.094-6.011-.141v-3.137c-.847,1.643-1.607,3.335-2.344,5.05.188,0,.391.007.586.015v6.3c-.977-.03-1.946-.059-2.923-.084-.21.651-.441,1.288-.643,1.942,1.186.036,2.379.072,3.566.106v6.246c-1.707-.051-3.422-.1-5.129-.16-.138.652-.311,1.289-.448,1.947,1.851.057,3.718.123,5.577.18v6.3Zm5.968,16.746q-3-.129-5.968-.26V315.5c1.982.081,3.971.167,5.968.247Zm0-8.261q-3-.119-5.968-.239v-6.286c1.982.073,3.971.152,5.968.224Zm125.362-10.442q3.375.115,6.779.224v6.717c-2.268-.079-4.529-.166-6.779-.246Zm0,8.786,6.779.25v6.716c-2.268-.087-4.529-.181-6.779-.268Zm0,8.789q3.375.14,6.779.275V327.9q-3.4-.147-6.779-.3Zm0,8.782q3.375.156,6.779.3v6.719c-2.268-.1-4.529-.217-6.779-.325Zm-8.759-52.836c2.256.043,4.513.094,6.778.138v6.687l-6.778-.163Zm0,8.745c2.256.059,4.513.109,6.778.167v6.691q-3.4-.092-6.778-.188Zm0,8.754q3.384.09,6.778.191v6.637l-6.778-.217Zm0,8.694q3.384.11,6.778.221v6.687q-3.4-.118-6.778-.246Zm0,8.746c2.256.079,4.513.166,6.778.249v6.7q-3.4-.141-6.778-.276Zm0,8.753q3.384.13,6.778.275v6.691l-6.778-.3Zm0,8.745q3.384.153,6.778.3v6.695q-3.4-.168-6.778-.329Zm0,8.75c2.256.112,4.513.22,6.778.336v6.688q-3.4-.185-6.778-.359Zm0,8.749q3.384.174,6.778.362v6.637c-2.265-.127-4.522-.264-6.778-.387Zm0,8.7,6.778.39v6.692q-3.4-.219-6.778-.413Zm-8.638-87.523,6.67.109v6.662l-6.67-.13Zm0,8.71c2.221.043,4.441.094,6.67.137v6.663q-3.344-.077-6.67-.159Zm0,8.717q3.332.077,6.67.162v6.663c-2.229-.061-4.449-.127-6.67-.184Zm0,8.709q3.332.1,6.67.195v6.609c-2.229-.076-4.449-.142-6.67-.214Zm0,8.663q3.332.108,6.67.22v6.655q-3.344-.113-6.67-.238Zm0,8.713c2.221.079,4.441.166,6.67.246v6.662q-3.344-.13-6.67-.267Zm0,8.713q3.332.137,6.67.278v6.655q-3.344-.145-6.67-.3Zm0,8.713q3.332.151,6.67.3v6.666l-6.67-.327Zm0,8.717,6.67.326v6.662q-3.344-.174-6.67-.355Zm0,8.71c2.221.115,4.441.238,6.67.354V353.3c-2.229-.123-4.449-.253-6.67-.376Zm0,8.658c2.221.127,4.441.26,6.67.384v6.662q-3.344-.2-6.67-.406Zm0,8.714q3.332.2,6.67.416v6.658l-6.67-.434ZM143.567,259.15q3.3.032,6.616.079v6.634q-3.321-.054-6.616-.1Zm0,8.673q3.3.054,6.616.112v6.633q-3.321-.058-6.616-.13Zm0,8.68q3.3.065,6.616.138v6.633q-3.321-.075-6.616-.159Zm0,8.681q3.3.076,6.616.159v6.633c-2.214-.058-4.416-.123-6.616-.181Zm0,8.673q3.3.1,6.616.192v6.582q-3.321-.1-6.616-.213Zm0,8.627q3.3.114,6.616.221v6.632c-2.214-.083-4.416-.159-6.616-.242Zm0,8.677c2.2.079,4.4.166,6.616.246v6.633q-3.321-.131-6.616-.264Zm0,8.68q3.3.141,6.616.268v6.633c-2.214-.094-4.416-.2-6.616-.289Zm0,8.673q3.3.153,6.616.3v6.637c-2.214-.109-4.416-.21-6.616-.319Zm0,8.681q3.3.168,6.616.326v6.633q-3.321-.173-6.616-.347Zm0,8.674c2.2.123,4.4.238,6.616.357v6.58q-3.321-.185-6.616-.377Zm0,8.63q3.3.188,6.616.379v6.633c-2.214-.134-4.416-.263-6.616-.4Zm0,8.672q3.3.207,6.616.412v6.634q-3.321-.216-6.616-.427Zm0,8.681q3.3.222,6.616.435v6.636q-3.321-.233-6.616-.459Zm-8.5-121.452,6.565.055v6.6q-3.288-.031-6.565-.072Zm0,8.644q3.271.039,6.565.08v6.608q-3.288-.054-6.565-.1Zm0,8.641,6.565.108V274.4q-3.288-.065-6.565-.126Zm0,8.645q3.271.066,6.565.133v6.609q-3.288-.082-6.565-.159Zm0,8.64q3.271.082,6.565.163v6.609l-6.565-.185Zm0,8.641q3.271.1,6.565.188v6.562q-3.288-.108-6.565-.214Zm0,8.594q3.271.1,6.565.217v6.6l-6.565-.239Zm0,8.637q3.271.119,6.565.246V317.7q-3.288-.141-6.565-.268Zm0,8.645c2.181.094,4.373.18,6.565.274v6.6q-3.288-.151-6.565-.289Zm0,8.644q3.271.141,6.565.3v6.609q-3.288-.158-6.565-.315Zm0,8.645c2.181.1,4.373.217,6.565.325v6.605l-6.565-.348Zm0,8.64c2.181.113,4.373.236,6.565.351v6.554q-3.288-.185-6.565-.369Zm0,8.59c2.181.123,4.373.253,6.565.376v6.609c-2.192-.134-4.384-.272-6.565-.4Zm0,8.641q3.271.2,6.565.409v6.605q-3.288-.217-6.565-.427Zm0,8.644q3.271.217,6.565.431v6.611c-2.192-.159-4.384-.3-6.565-.455Zm0,8.641q3.271.228,6.565.463V387c-2.192-.162-4.384-.325-6.565-.476Zm-8.427-129.6q3.245.032,6.51.054v6.578c-2.174-.021-4.347-.049-6.51-.072Zm0,8.608q3.245.042,6.51.079V265.6q-3.261-.054-6.51-.1Zm0,8.608,6.51.109v6.575c-2.174-.036-4.347-.083-6.51-.123Zm0,8.608q3.245.066,6.51.134v6.579l-6.51-.152Zm0,8.608q3.245.077,6.51.159v6.583q-3.261-.091-6.51-.18Zm0,8.609q3.245.086,6.51.188v6.524q-3.261-.1-6.51-.2Zm0,8.553q3.245.1,6.51.214v6.583c-2.174-.084-4.347-.159-6.51-.239Zm0,8.605q3.245.12,6.51.243v6.586q-3.261-.141-6.51-.268Zm0,8.612q3.245.131,6.51.264v6.583q-3.261-.153-6.51-.289Zm0,8.605q3.245.14,6.51.3v6.583q-3.261-.162-6.51-.318Zm0,8.608,6.51.325v6.576q-3.261-.174-6.51-.34Zm0,8.608,6.51.347v6.532q-3.261-.189-6.51-.372Zm0,8.558q3.245.185,6.51.372v6.579c-2.174-.13-4.347-.267-6.51-.393Zm0,8.6,6.51.4v6.583c-2.174-.145-4.347-.282-6.51-.427Zm0,8.609q3.245.21,6.51.43v6.579c-2.174-.148-4.347-.307-6.51-.452Zm0,8.6q3.245.23,6.51.459v6.579q-3.261-.243-6.51-.477Zm-8.359-129.073q3.224.023,6.452.051v6.554q-3.233-.033-6.452-.073Zm0,8.572q3.224.039,6.452.079v6.555c-2.155-.036-4.3-.065-6.452-.1Zm0,8.573,6.452.108v6.554q-3.233-.065-6.452-.127Zm0,8.572q3.224.065,6.452.134v6.556q-3.233-.079-6.452-.155Zm0,8.571q3.224.089,6.452.159v6.554l-6.452-.173Zm0,8.576c2.149.062,4.3.119,6.452.185v6.5q-3.233-.1-6.452-.2Zm0,8.522q3.224.1,6.452.213v6.55q-3.233-.12-6.452-.231Zm0,8.568q3.224.118,6.452.242v6.558l-6.452-.261Zm0,8.579q3.224.131,6.452.265v6.55l-6.452-.282Zm0,8.569q3.224.145,6.452.293v6.557l-6.452-.314Zm0,8.576c2.149.1,4.3.21,6.452.318v6.554c-2.155-.116-4.3-.225-6.452-.34Zm0,8.571c2.149.116,4.3.225,6.452.348v6.5c-2.155-.13-4.3-.245-6.452-.368Zm0,8.522q3.224.185,6.452.369v6.553q-3.233-.194-6.452-.39Zm0,8.572q3.224.2,6.452.4v6.554c-2.155-.145-4.3-.278-6.452-.42Zm0,8.572c2.149.141,4.3.278,6.452.427v6.554q-3.233-.228-6.452-.445Zm0,8.572c2.149.153,4.3.3,6.452.455v6.555q-3.233-.238-6.452-.474Zm-8.29-137.045q3.191.016,6.405.03v6.474l-6.405-.044Zm0,8.49,6.405.053v6.526q-3.216-.033-6.405-.072Zm0,8.539q3.191.037,6.405.08v6.524c-2.144-.028-4.278-.064-6.405-.1Zm0,8.54q3.191.048,6.405.1v6.526q-3.216-.06-6.405-.123Zm0,8.539,6.405.131v6.524q-3.216-.077-6.405-.148Zm0,8.536q3.191.081,6.405.159v6.526l-6.405-.174Zm0,8.543q3.191.087,6.405.181v6.474q-3.216-.1-6.405-.2Zm0,8.485q3.191.109,6.405.21v6.525c-2.144-.073-4.278-.156-6.405-.232Zm0,8.536q3.191.115,6.405.239v6.528q-3.216-.124-6.405-.256Zm0,8.543,6.405.261v6.525q-3.216-.141-6.405-.283Zm0,8.533c2.127.1,4.261.2,6.405.293v6.528q-3.216-.157-6.405-.311Zm0,8.539q3.191.163,6.405.318v6.525c-2.144-.108-4.278-.224-6.405-.333Zm0,8.54q3.191.168,6.405.344v6.473q-3.216-.178-6.405-.361Zm0,8.489q3.191.185,6.405.368v6.526q-3.216-.19-6.405-.391Zm0,8.535q3.191.2,6.405.4v6.524q-3.216-.207-6.405-.412Zm0,8.54q3.191.212,6.405.423v6.525q-3.216-.216-6.405-.441Zm0,8.539q3.191.224,6.405.449v6.525c-2.144-.155-4.278-.3-6.405-.467Zm0,8.536q3.191.24,6.405.478v6.528c-2.144-.162-4.278-.336-6.405-.5Zm-8.232-145.03,6.355.022v6.452l-6.355-.043Zm0,8.452q3.174.029,6.355.047v6.5q-3.185-.033-6.355-.069Zm0,8.5q3.174.039,6.355.079v6.5q-3.185-.054-6.355-.1Zm0,8.507q3.174.042,6.355.1v6.5q-3.185-.066-6.355-.124Zm0,8.5,6.355.131v6.5q-3.185-.076-6.355-.149Zm0,8.5q3.174.077,6.355.158v6.5q-3.185-.091-6.355-.177Zm0,8.507q3.174.086,6.355.18v6.453q-3.185-.1-6.355-.2Zm0,8.452q3.174.1,6.355.206v6.5q-3.185-.12-6.355-.232Zm0,8.5c2.116.076,4.232.159,6.355.231v6.507c-2.123-.084-4.239-.178-6.355-.257Zm0,8.507,6.355.26v6.5q-3.185-.139-6.355-.278Zm0,8.5c2.116.093,4.232.195,6.355.289v6.5q-3.185-.153-6.355-.308Zm0,8.506,6.355.315v6.5c-2.123-.109-4.239-.225-6.355-.333Zm0,8.5q3.174.169,6.355.34v6.449q-3.185-.174-6.355-.358Zm0,8.453c2.116.124,4.232.243,6.355.369v6.5c-2.123-.127-4.239-.261-6.355-.387Zm0,8.507q3.174.19,6.355.391v6.5l-6.355-.412Zm0,8.5c2.116.142,4.232.276,6.355.416v6.5c-2.123-.144-4.239-.3-6.355-.44Zm0,8.5q3.174.217,6.355.448v6.5l-6.355-.466Zm0,8.507q3.174.227,6.355.47v6.5q-3.185-.25-6.355-.493ZM93.6,241.647q3.142.012,6.3.025V248.1l-6.3-.044Zm0,8.417q3.142.032,6.3.051V256.6q-3.156-.043-6.3-.072Zm0,8.471q3.142.043,6.3.079v6.474c-2.1-.029-4.2-.065-6.3-.093Zm0,8.47q3.142.054,6.3.105v6.478q-3.156-.066-6.3-.123Zm0,8.471,6.3.13v6.475q-3.156-.071-6.3-.145Zm0,8.471q3.142.081,6.3.159v6.475l-6.3-.174Zm0,8.47q3.142.089,6.3.182v6.427q-3.156-.1-6.3-.2Zm0,8.42c2.095.07,4.193.146,6.3.21v6.475q-3.156-.118-6.3-.228Zm0,8.472q3.142.118,6.3.231v6.482q-3.156-.13-6.3-.253Zm0,8.471,6.3.26v6.474l-6.3-.282Zm0,8.47q3.142.141,6.3.286v6.478l-6.3-.3Zm0,8.471q3.142.158,6.3.311v6.474q-3.156-.162-6.3-.333Zm0,8.471c2.095.116,4.193.224,6.3.34v6.424q-3.156-.176-6.3-.363Zm0,8.42q3.142.185,6.3.362v6.478q-3.156-.191-6.3-.387Zm0,8.47,6.3.391v6.475q-3.156-.207-6.3-.409Zm0,8.471q3.142.207,6.3.416v6.475q-3.156-.218-6.3-.438Zm0,8.472c2.095.144,4.193.3,6.3.44v6.475c-2.1-.149-4.2-.312-6.3-.459Zm0,8.471q3.142.226,6.3.469v6.475c-2.1-.159-4.2-.329-6.3-.492ZM85.508,250c2.076.014,4.159.036,6.247.05V256.5q-3.132-.031-6.247-.072Zm0,8.442q3.114.031,6.247.072v6.452l-6.247-.1Zm0,8.434q3.114.05,6.247.1v6.453q-3.132-.066-6.247-.123Zm0,8.435,6.247.13v6.452l-6.247-.151Zm0,8.438q3.114.081,6.247.156v6.452q-3.132-.093-6.247-.174Zm0,8.438q3.114.087,6.247.181v6.4c-2.088-.064-4.171-.134-6.247-.2Zm0,8.388c2.076.068,4.159.141,6.247.206v6.445c-2.088-.072-4.171-.151-6.247-.224Zm0,8.434q3.114.114,6.247.232v6.453q-3.132-.126-6.247-.25Zm0,8.439,6.247.26v6.446q-3.132-.143-6.247-.276Zm0,8.434c2.076.094,4.159.192,6.247.283v6.456l-6.247-.3Zm0,8.443q3.114.15,6.247.31v6.446q-3.132-.163-6.247-.33Zm0,8.433,6.247.333v6.4q-3.132-.178-6.247-.355Zm0,8.385q3.114.185,6.247.361v6.454q-3.132-.2-6.247-.384Zm0,8.438c2.076.127,4.159.26,6.247.387v6.452q-3.132-.2-6.247-.408Zm0,8.438,6.247.413v6.452c-2.088-.144-4.171-.3-6.247-.434Zm0,8.439q3.114.21,6.247.437v6.449c-2.088-.148-4.171-.307-6.247-.459ZM77.475,249.933q3.092.029,6.2.051v6.424q-3.113-.033-6.2-.069Zm0,8.406q3.092.039,6.2.073v6.427q-3.113-.05-6.2-.094Zm0,8.406q3.092.05,6.2.1v6.424q-3.113-.06-6.2-.123Zm0,8.406q3.092.054,6.2.123V281.7q-3.113-.077-6.2-.149Zm0,8.4q3.092.077,6.2.156v6.423q-3.113-.081-6.2-.17Zm0,8.406q3.092.087,6.2.18v6.373c-2.075-.064-4.138-.134-6.2-.2Zm0,8.355c2.061.064,4.124.137,6.2.2v6.424q-3.113-.114-6.2-.225Zm0,8.4q3.092.12,6.2.232v6.431q-3.113-.13-6.2-.253Zm0,8.41q3.092.125,6.2.256v6.42q-3.113-.135-6.2-.275Zm0,8.4,6.2.282v6.423q-3.113-.151-6.2-.3Zm0,8.405q3.092.153,6.2.3v6.424c-2.075-.105-4.138-.217-6.2-.325Zm0,8.4q3.092.168,6.2.332v6.373q-3.113-.174-6.2-.351Zm0,8.351c2.061.115,4.124.246,6.2.361v6.424c-2.075-.123-4.138-.253-6.2-.376Zm0,8.405c2.061.123,4.124.261,6.2.384v6.424q-3.113-.2-6.2-.4Zm0,8.406c2.061.131,4.124.275,6.2.4v6.428q-3.113-.217-6.2-.431Zm0,8.4c2.061.142,4.124.293,6.2.438v6.423c-2.075-.151-4.138-.307-6.2-.455ZM69.5,258.242q3.07.037,6.148.076v6.4q-3.079-.05-6.148-.094Zm0,8.373q3.07.043,6.148.1v6.395c-2.053-.036-4.1-.08-6.148-.116Zm0,8.369q3.07.066,6.148.127v6.4q-3.079-.071-6.148-.144Zm0,8.37,6.148.151v6.4l-6.148-.174Zm0,8.369q3.07.093,6.148.181v6.347q-3.079-.1-6.148-.2Zm0,8.326q3.07.1,6.148.2v6.4c-2.053-.076-4.1-.146-6.148-.225Zm0,8.366q3.07.115,6.148.228v6.4q-3.079-.125-6.148-.246Zm0,8.374q3.07.129,6.148.252v6.4q-3.079-.137-6.148-.272Zm0,8.369q3.07.141,6.148.279v6.4q-3.079-.151-6.148-.3Zm0,8.373c2.047.1,4.095.207,6.148.3v6.4l-6.148-.325Zm0,8.366q3.07.174,6.148.333v6.348q-3.079-.175-6.148-.348Zm0,8.326q3.07.168,6.148.355v6.394q-3.079-.184-6.148-.372Zm0,8.369c2.047.123,4.095.254,6.148.38v6.4q-3.079-.2-6.148-.4Zm0,8.37c2.047.137,4.095.268,6.148.406v6.4c-2.053-.141-4.1-.289-6.148-.427Zm-7.95-108.818,6.149.076V264.6c-2.055-.036-4.109-.064-6.149-.1Zm0,8.341c2.04.028,4.094.064,6.149.1v6.373c-2.055-.043-4.109-.079-6.149-.123Zm0,8.337c2.04.039,4.094.083,6.149.126v6.373c-2.055-.05-4.109-.094-6.149-.145Zm0,8.337,6.149.151v6.373c-2.055-.058-4.109-.115-6.149-.166Zm0,8.34,6.149.173V298c-2.055-.069-4.109-.134-6.149-.2Zm0,8.287c2.04.068,4.094.133,6.149.2v6.369c-2.055-.072-4.109-.145-6.149-.221Zm0,8.337c2.04.076,4.094.148,6.149.223v6.381c-2.055-.087-4.109-.167-6.149-.246Zm0,8.339c2.04.084,4.094.167,6.149.254v6.373c-2.055-.093-4.109-.184-6.149-.275Zm0,8.334c2.04.094,4.094.185,6.149.283v6.373c-2.055-.1-4.109-.2-6.149-.3Zm0,8.341,6.149.3v6.373c-2.055-.112-4.109-.217-6.149-.326Zm0,8.337c2.04.108,4.094.213,6.149.329v6.322l-6.149-.347Zm0,8.286c2.04.119,4.094.239,6.149.355v6.373c-2.055-.123-4.109-.246-6.149-.373Zm0,8.341c2.04.123,4.094.249,6.149.376v6.38c-2.055-.137-4.109-.268-6.149-.405Zm0,8.337c2.04.141,4.094.268,6.149.408v6.373c-2.055-.144-4.109-.289-6.149-.427ZM53.7,266.354c2.012.036,4.037.065,6.055.1V272.8c-2.018-.036-4.043-.075-6.055-.115Zm0,8.305c2.012.044,4.037.087,6.055.123v6.351c-2.018-.048-4.043-.094-6.055-.145Zm0,8.307c2.012.048,4.037.1,6.055.149v6.351c-2.018-.057-4.043-.115-6.055-.17Zm0,8.305c2.012.059,4.037.116,6.055.178v6.293c-2.018-.065-4.043-.127-6.055-.192Zm0,8.254c2.012.068,4.037.134,6.055.2v6.352c-2.018-.074-4.043-.149-6.055-.221Zm0,8.305c2.012.076,4.037.148,6.055.227V314.4c-2.018-.079-4.043-.163-6.055-.242Zm0,8.307,6.055.25v6.348c-2.018-.087-4.043-.181-6.055-.268Zm0,8.305c2.012.094,4.037.184,6.055.274v6.352c-2.018-.094-4.043-.195-6.055-.3Zm0,8.307c2.012.1,4.037.2,6.055.3v6.344c-2.018-.1-4.043-.21-6.055-.318Zm0,8.3c2.012.11,4.037.218,6.055.326v6.3L53.7,347.33Zm0,8.258c2.012.115,4.037.235,6.055.351v6.347c-2.018-.123-4.043-.242-6.055-.368Zm0,8.305c2.012.126,4.037.249,6.055.376v6.347l-6.055-.39Zm-7.783-74.838c2,.047,4.008.1,6.011.148v6.326l-6.011-.173Zm0,8.275c2,.051,4.008.113,6.011.17V297.5l-6.011-.2Zm0,8.218c2,.065,4.008.13,6.011.2v6.323c-2-.073-4.015-.152-6.011-.217Zm0,8.275c2,.073,4.008.145,6.011.221v6.326c-2-.079-4.015-.159-6.011-.242Zm0,8.276c2,.08,4.008.163,6.011.246v6.322c-2-.09-4.015-.18-6.011-.267Zm0,8.268c2,.094,4.008.181,6.011.276v6.322c-2-.1-4.015-.195-6.011-.29Zm0,8.276c2,.094,4.008.2,6.011.3v6.322c-2-.1-4.015-.21-6.011-.315Zm0,8.271c2,.106,4.008.214,6.011.323v6.271c-2-.108-4.015-.228-6.011-.34Z"/><path class="cls-14" d="M161.178,117.647c-.029,33.039-25.066,60.466-55.152,61.29-29.238.749-52.314-24.034-52.336-55.4.022-31.36,23.1-58.678,52.336-61.136C136.12,59.928,161.149,84.605,161.178,117.647Z"/><path class="cls-15" d="M151.333,118.186c-.029,27.143-20.534,49.774-45.307,50.573-24.182.742-43.366-19.708-43.388-45.708.022-26,19.206-48.557,43.388-50.469C130.8,70.664,151.3,91.041,151.333,118.186Z"/><path class="cls-16" d="M149.517,118.284c-.014,26.058-19.7,47.8-43.491,48.594-23.249.735-41.71-18.916-41.724-43.918.014-25,18.475-46.681,41.724-48.5C129.819,72.64,149.5,92.228,149.517,118.284Z"/><path class="cls-17" d="M122.542,119.765c-.008,9.894-7.426,18.247-16.516,18.677-9.006.406-16.243-7.143-16.247-16.881s7.241-18.082,16.247-18.662C115.116,102.335,122.534,109.873,122.542,119.765Z"/><path class="cls-18" d="M107.886,67.1a2.149,2.149,0,0,1-1.86,2.17,1.767,1.767,0,0,1-1.855-1.87,2.151,2.151,0,0,1,1.855-2.172A1.764,1.764,0,0,1,107.886,67.1Z"/><path class="cls-19" d="M107.886,172.922a2.015,2.015,0,0,1-1.86,2.077,1.879,1.879,0,0,1-1.855-1.968,2.016,2.016,0,0,1,1.855-2.073A1.878,1.878,0,0,1,107.886,172.922Z"/><path class="cls-20" d="M158.331,117.388a2.16,2.16,0,0,1-1.96,2.178,1.884,1.884,0,0,1-1.946-1.963,2.15,2.15,0,0,1,1.946-2.177A1.886,1.886,0,0,1,158.331,117.388Z"/><path class="cls-21" d="M60.88,122.752a2.019,2.019,0,0,1-1.786,2.073,1.757,1.757,0,0,1-1.766-1.877,2.01,2.01,0,0,1,1.766-2.073A1.77,1.77,0,0,1,60.88,122.752Z"/><path class="cls-22" d="M207.753,190.725c-.018,15.524-11.777,28.41-25.915,28.8-13.737.354-24.581-11.292-24.592-26.027.011-14.736,10.858-27.572,24.592-28.726C195.976,163.6,207.735,175.2,207.753,190.725Z"/><path class="cls-23" d="M203.127,190.978c-.015,12.753-9.647,23.387-21.289,23.763-11.362.347-20.378-9.259-20.385-21.477s9.023-22.815,20.385-23.713C193.48,168.651,203.112,178.225,203.127,190.978Z"/><path class="cls-24" d="M202.273,191.025c0,12.243-9.259,22.457-20.435,22.834-10.923.344-19.6-8.891-19.6-20.639s8.681-21.932,19.6-22.786C193.021,169.581,202.269,178.782,202.273,191.025Z"/><path class="cls-25" d="M189.6,191.723c0,4.644-3.487,8.572-7.758,8.775-4.229.188-7.632-3.357-7.632-7.936s3.4-8.492,7.632-8.767C186.109,183.535,189.6,187.072,189.6,191.723Z"/><path class="cls-26" d="M182.713,166.976a1.012,1.012,0,0,1-.875,1.02.83.83,0,0,1-.872-.875,1.006,1.006,0,0,1,.872-1.02A.826.826,0,0,1,182.713,166.976Z"/><path class="cls-27" d="M182.713,216.694a.945.945,0,0,1-.875.976.881.881,0,0,1-.872-.921.946.946,0,0,1,.872-.973A.879.879,0,0,1,182.713,216.694Z"/><path class="cls-28" d="M206.411,190.605a1.01,1.01,0,0,1-.919,1.024.887.887,0,0,1-.911-.926,1.006,1.006,0,0,1,.911-1.02A.882.882,0,0,1,206.411,190.605Z"/><path class="cls-29" d="M160.628,193.123a.945.945,0,0,1-.839.973.827.827,0,0,1-.832-.879.946.946,0,0,1,.832-.973A.828.828,0,0,1,160.628,193.123Z"/></g></g></g></svg>