<svg xmlns="http://www.w3.org/2000/svg" xmlns:xlink="http://www.w3.org/1999/xlink" viewBox="0 0 280.559 467.056"><defs><style>.cls-1{isolation:isolate;}.cls-2{fill:url(#radial-gradient);}.cls-3{fill:url(#radial-gradient-2);}.cls-4{opacity:0.3;mix-blend-mode:screen;fill:url(#linear-gradient);}.cls-5{fill:url(#radial-gradient-3);}.cls-6{fill:url(#linear-gradient-2);}.cls-7{fill:url(#radial-gradient-4);}.cls-8{fill:url(#radial-gradient-5);}.cls-9{fill:url(#radial-gradient-6);}.cls-10{fill:url(#radial-gradient-7);}.cls-11{fill:url(#radial-gradient-8);}.cls-12{fill:url(#radial-gradient-9);}.cls-13{fill:url(#radial-gradient-10);}.cls-14{fill:url(#radial-gradient-11);}.cls-15{fill:url(#linear-gradient-3);}.cls-16{fill:url(#radial-gradient-12);}.cls-17{fill:url(#radial-gradient-13);}.cls-18{fill:url(#radial-gradient-14);}.cls-19{fill:url(#radial-gradient-15);}.cls-20{fill:url(#radial-gradient-16);}.cls-21{fill:url(#radial-gradient-17);}.cls-22{fill:url(#radial-gradient-18);}.cls-23{fill:url(#linear-gradient-4);}.cls-24{fill:url(#radial-gradient-19);}.cls-25{fill:url(#radial-gradient-20);}.cls-26{fill:url(#radial-gradient-21);}.cls-27{fill:url(#radial-gradient-22);}.cls-28{fill:url(#radial-gradient-23);}.cls-29{fill:url(#radial-gradient-24);}</style><radialGradient id="radial-gradient" cx="1710.67" cy="210.481" r="95.107" gradientTransform="matrix(-3.704, 0, 0, 3.704, 6242.49, -645.954)" gradientUnits="userSpaceOnUse"><stop offset="0" stop-color="#515254"/><stop offset="0.186" stop-color="#858587"/><stop offset="0.371" stop-color="#b0b1b2"/><stop offset="0.55" stop-color="#d3d3d3"/><stop offset="0.718" stop-color="#ebebeb"/><stop offset="0.872" stop-color="#fafafa"/><stop offset="1" stop-color="#fff"/></radialGradient><radialGradient id="radial-gradient-2" cx="1663.528" cy="168.9" r="154.752" gradientTransform="matrix(-3.439, 0, 0, 3.704, 6011.862, -645.954)" gradientUnits="userSpaceOnUse"><stop offset="0" stop-color="#fff"/><stop offset="0.151" stop-color="#d8d8d8"/><stop offset="0.336" stop-color="#afafaf"/><stop offset="0.517" stop-color="#8f8f8f"/><stop offset="0.692" stop-color="#797979"/><stop offset="0.856" stop-color="#6b6b6b"/><stop offset="1" stop-color="#666"/></radialGradient><linearGradient id="linear-gradient" x1="250.616" y1="93.499" x2="157.616" y2="243.499" gradientUnits="userSpaceOnUse"><stop offset="0" stop-color="#fff"/><stop offset="1" stop-color="#c5e7eb"/></linearGradient><radialGradient id="radial-gradient-3" cx="1698.782" cy="260.081" r="26.27" gradientTransform="matrix(-3.439, 0, 0, 3.704, 6011.862, -645.954)" gradientUnits="userSpaceOnUse"><stop offset="0.414" stop-color="#515254"/><stop offset="0.812" stop-color="#515254"/><stop offset="0.9" stop-color="#323335"/><stop offset="1" stop-color="#0a0b0d"/></radialGradient><linearGradient id="linear-gradient-2" x1="1462.408" y1="225.673" x2="1554.785" y2="390.045" gradientTransform="matrix(-1, 0, 0, 1, 1685.664, 0)" gradientUnits="userSpaceOnUse"><stop offset="0" stop-color="#0d0f11"/><stop offset="0.414" stop-color="#6c6d70"/><stop offset="0.608" stop-color="#6c6d70"/><stop offset="0.749" stop-color="#4d4e51"/><stop offset="1" stop-color="#0d0f11"/></linearGradient><radialGradient id="radial-gradient-4" cx="1704.379" cy="272.417" r="26.74" gradientTransform="matrix(-3.439, 0, 0, 3.704, 6011.862, -645.954)" gradientUnits="userSpaceOnUse"><stop offset="0" stop-color="#515254"/><stop offset="0.172" stop-color="#515254"/><stop offset="0.561" stop-color="#323335"/><stop offset="1" stop-color="#0a0b0d"/></radialGradient><radialGradient id="radial-gradient-5" cx="1696.115" cy="254.746" r="13.608" xlink:href="#radial-gradient-4"/><radialGradient id="radial-gradient-6" cx="1697.456" cy="235.308" r="1.545" xlink:href="#radial-gradient-4"/><radialGradient id="radial-gradient-7" cx="1697.456" cy="283.061" r="1.549" xlink:href="#radial-gradient-4"/><radialGradient id="radial-gradient-8" cx="1722.344" cy="260.161" r="1.634" xlink:href="#radial-gradient-4"/><radialGradient id="radial-gradient-9" cx="1674.982" cy="258.435" r="1.47" xlink:href="#radial-gradient-4"/><radialGradient id="radial-gradient-10" cx="1676.416" cy="227.182" r="59.667" gradientTransform="matrix(-3.439, 0, 0, 3.704, 6011.862, -645.954)" gradientUnits="userSpaceOnUse"><stop offset="0" stop-color="#515254"/><stop offset="0.261" stop-color="#333436"/><stop offset="0.527" stop-color="#1c1d1f"/><stop offset="0.779" stop-color="#0f1012"/><stop offset="1" stop-color="#0a0b0d"/></radialGradient><radialGradient id="radial-gradient-11" cx="1698.048" cy="206.968" r="15.694" xlink:href="#radial-gradient-3"/><linearGradient id="linear-gradient-3" x1="1482.438" y1="67.814" x2="1535.697" y2="162.581" xlink:href="#linear-gradient-2"/><radialGradient id="radial-gradient-12" cx="1701.492" cy="214.361" r="15.976" xlink:href="#radial-gradient-4"/><radialGradient id="radial-gradient-13" cx="1696.703" cy="203.82" r="8.137" xlink:href="#radial-gradient-4"/><radialGradient id="radial-gradient-14" cx="1697.529" cy="192.205" r="0.925" xlink:href="#radial-gradient-4"/><radialGradient id="radial-gradient-15" cx="1697.529" cy="220.752" r="0.924" xlink:href="#radial-gradient-4"/><radialGradient id="radial-gradient-16" cx="1712.166" cy="205.763" r="0.956" xlink:href="#radial-gradient-4"/><radialGradient id="radial-gradient-17" cx="1683.887" cy="207.225" r="0.897" xlink:href="#radial-gradient-4"/><radialGradient id="radial-gradient-18" cx="1719.879" cy="226.277" r="7.374" xlink:href="#radial-gradient-3"/><linearGradient id="linear-gradient-4" x1="1573.461" y1="167.31" x2="1598.486" y2="211.838" xlink:href="#linear-gradient-2"/><radialGradient id="radial-gradient-19" cx="1721.497" cy="229.751" r="7.506" xlink:href="#radial-gradient-4"/><radialGradient id="radial-gradient-20" cx="1719.247" cy="224.798" r="3.823" xlink:href="#radial-gradient-4"/><radialGradient id="radial-gradient-21" cx="1719.635" cy="219.342" r="0.434" xlink:href="#radial-gradient-4"/><radialGradient id="radial-gradient-22" cx="1719.635" cy="232.754" r="0.434" xlink:href="#radial-gradient-4"/><radialGradient id="radial-gradient-23" cx="1726.512" cy="225.711" r="0.449" xlink:href="#radial-gradient-4"/><radialGradient id="radial-gradient-24" cx="1713.225" cy="226.399" r="0.421" xlink:href="#radial-gradient-4"/></defs><title>Asset 1</title><g class="cls-1"><g id="Layer_2" data-name="Layer 2"><g id="objects"><polygon class="cls-2" points="52.475 0 0 31.491 0 443.344 52.475 467.056 52.475 0"/><path class="cls-3" d="M52.475,467.056l120.342-12.893q55.816-5.986,107.742-11.542V24.436q-51.954-5.561-107.742-11.544Q114.907,6.685,52.475,0Z"/><path class="cls-4" d="M279.162,26.776V440.845q-15.288,1.621-30.91,3.281c-4.571-40.706-9.925-96.363-33.167-166.436C191.268,205.974,147.8,116.509,62.316,3.819,139.751,12.024,211.858,19.656,279.162,26.776Z"/><path class="cls-5" d="M80.586,320.962c.043,56.293,43.1,98.091,93.946,93.657,48.445-4.305,86.039-49.393,86.082-100.97-.043-51.577-37.637-93.606-86.082-93.975C123.692,219.378,80.629,264.676,80.586,320.962Z"/><path class="cls-6" d="M97.606,320.275c.037,46.087,35.143,80.617,76.926,77.322,40.148-3.233,71.529-40.473,71.565-83.358-.036-42.886-31.417-77.565-71.565-77.539C132.749,236.8,97.643,274.181,97.606,320.275Z"/><path class="cls-7" d="M100.725,320.145c.032,44.228,33.691,77.409,73.807,74.3,38.607-3.053,68.837-38.834,68.859-80.1-.022-41.261-30.252-74.584-68.859-74.5C134.416,240,100.757,275.924,100.725,320.145Z"/><path class="cls-8" d="M146.761,318.275c.008,16.641,12.521,29.431,27.771,28.6,15.017-.839,27.032-14.623,27.04-30.827-.008-16.2-12.023-29.011-27.04-28.631C159.282,287.828,146.769,301.633,146.761,318.275Z"/><path class="cls-9" d="M171.41,227.777a3.123,3.123,0,1,0,3.122-3.371A3.266,3.266,0,0,0,171.41,227.777Z"/><path class="cls-10" d="M171.41,404.911a2.952,2.952,0,0,0,3.122,3.121,3.6,3.6,0,0,0,3.1-3.635,2.95,2.95,0,0,0-3.1-3.125A3.608,3.608,0,0,0,171.41,404.911Z"/><path class="cls-11" d="M85.512,320.058a3.3,3.3,0,0,0,3.389,3.386,3.627,3.627,0,0,0,3.368-3.653A3.286,3.286,0,0,0,88.9,316.4,3.63,3.63,0,0,0,85.512,320.058Z"/><path class="cls-12" d="M248.961,313.472a2.951,2.951,0,0,0,2.887,3.136,3.251,3.251,0,0,0,2.885-3.371,2.944,2.944,0,0,0-2.885-3.133A3.252,3.252,0,0,0,248.961,313.472Z"/><path class="cls-13" d="M236.4,305.511v-6.3c1.86-.058,3.726-.124,5.578-.181-.137-.658-.311-1.295-.449-1.946-1.707.057-3.421.108-5.129.159V291c1.187-.034,2.38-.07,3.567-.106-.2-.654-.434-1.291-.644-1.942-.976.025-1.946.054-2.923.084v-6.3c.2-.008.4-.015.586-.015-.737-1.714-1.5-3.407-2.343-5.05V280.8c-2,.047-4.008.1-6.011.141v-6.322c1.425-.03,2.864-.058,4.289-.087-.376-.644-.709-1.317-1.1-1.947l-3.189.059v-4.76c-.876-1.208-1.823-2.351-2.771-3.494-1.685.029-3.371.051-5.056.079V258.9c-.955-.926-1.91-1.852-2.916-2.724l-5.028.059v-4.052c-.586-.416-1.2-.792-1.8-1.193v5.263q-3.071.037-6.149.072v-6.4c1.5-.011,2.988-.021,4.492-.036-1.107-.691-2.235-1.339-3.385-1.967-.369,0-.739.006-1.107.006v-.588c-.608-.316-1.209-.656-1.823-.953v1.556l-6.2.043v-4.21c-.609-.217-1.212-.466-1.834-.673V248l-6.247.044v-6.4h.969a65.323,65.323,0,0,0-15.241-1.79,66.919,66.919,0,0,0-15.473,1.913c1.074-.006,2.148-.014,3.218-.014v6.481l-6.452.044v-5.606c-.633.188-1.28.333-1.906.535v5.086c-2.163.013-4.337.028-6.511.047V245.7c-.639.285-1.276.578-1.917.879v1.771c-1.146.008-2.3.019-3.443.026-1.725.941-3.4,1.961-5.057,3.039v5.671c-2.2.029-4.4.05-6.615.079v-.882c-1.176.966-2.329,1.953-3.45,3l1.505-.022v6.64q-3.332.054-6.67.1v-1.451c-1.042,1.169-2.07,2.348-3.046,3.585l1.078-.022v6.67c-1.975.036-3.946.075-5.925.115-1.019,1.588-1.931,3.248-2.835,4.916v3.924c-.68.015-1.352.032-2.033.051-.329.694-.644,1.4-.955,2.112,1-.021,1.993-.051,2.988-.072v6.694c-1.874.055-3.762.106-5.642.156-.243.709-.507,1.4-.739,2.12,2.134-.066,4.261-.124,6.381-.185v6.645l-6.778.216v-5.519a82.721,82.721,0,0,0-2,8.16v6.239c-.3.011-.608.026-.911.032-.079.709-.188,1.4-.253,2.113.39-.015.773-.03,1.164-.043v6.723c-.5.018-.99.039-1.489.062,0,.3-.044.6-.044.911,0,.405.05.788.057,1.187.492-.019.985-.044,1.476-.062v6.72l-1.15.054c.065.705.188,1.389.282,2.084.29-.015.575-.022.868-.037v5.968a77.869,77.869,0,0,0,2,8v-5.24q3.4-.163,6.778-.337v6.695c-2.084.109-4.167.217-6.261.329.228.691.481,1.371.727,2.058q2.778-.151,5.534-.3v6.641c-.955.058-1.91.108-2.865.163.318.68.622,1.371.959,2.036.64-.028,1.269-.075,1.906-.108v3.653c.962,1.686,1.946,3.356,3.024,4.944,1.917-.119,3.827-.242,5.736-.354v6.666c-.282.014-.564.04-.839.057.9,1.057,1.852,2.077,2.807,3.082v-1.186c2.228-.145,4.449-.3,6.67-.442v6.641l-1.227.087c1.024.86,2.1,1.664,3.172,2.459V381q3.321-.24,6.615-.463v5.4c1.82,1.045,3.679,1.992,5.581,2.86.974-.068,1.947-.151,2.919-.216v1.5c.633.25,1.278.488,1.917.719v-2.369q3.261-.245,6.511-.484v4.821c.626.148,1.273.249,1.906.38V387.81q3.233-.249,6.452-.484v6.539l-1.985.152a65.394,65.394,0,0,0,14.24.43,67.186,67.186,0,0,0,14.272-2.68v-6.409c2.088-.152,4.171-.312,6.247-.463v4.63c.622-.254,1.225-.543,1.834-.818v-3.95c2.075-.152,4.137-.31,6.2-.463v1.3c.614-.347,1.215-.734,1.823-1.095v-.329c.2-.019.412-.037.621-.051,1.18-.724,2.344-1.462,3.473-2.25-1.359.1-2.727.2-4.094.3v-6.4l6.149-.434v5c.6-.445,1.214-.875,1.8-1.338v-3.79c1.571-.116,3.147-.224,4.717-.332,1.107-1.05,2.178-2.128,3.227-3.242v-5.317c1.613-.108,3.233-.209,4.846-.317,1.013-1.31,2.033-2.62,2.981-3.994v-4.5l3.023-.184c.391-.67.752-1.364,1.128-2.04-1.381.087-2.77.166-4.151.253v-6.326c2-.12,4.015-.235,6.011-.351v2.887c.8-1.628,1.534-3.3,2.235-4.978-.159.008-.318.019-.478.026v-6.25c.941-.047,1.889-.1,2.822-.149.224-.669.448-1.323.643-2-1.149.062-2.307.127-3.465.185v-6.3c1.694-.079,3.386-.17,5.072-.249.137-.662.318-1.314.441-1.986-1.83.094-3.675.181-5.513.267v-6.3c2-.086,3.987-.18,5.968-.267v3.343a84.943,84.943,0,0,0,1.028-12.736,83.214,83.214,0,0,0-1.028-12.648v3.595Zm0,10.236c2-.08,3.987-.166,5.968-.246v6.279l-5.968.261Zm0-8.269c2-.072,3.987-.151,5.968-.224v6.287l-5.968.238Zm-125.362,2.554c-2.25.08-4.511.167-6.778.246v-6.717q3.4-.113,6.778-.224Zm0,8.789c-2.25.087-4.511.182-6.778.268v-6.716l6.778-.25Zm0,8.782q-3.375.153-6.778.3v-6.716q3.4-.13,6.778-.275Zm0,8.789q-3.375.163-6.778.325V330q3.4-.153,6.778-.3Zm8.76-52.872-6.778.163V277c2.264-.044,4.521-.095,6.778-.138Zm0,8.753q-3.386.1-6.778.188V285.77c2.264-.058,4.521-.108,6.778-.167Zm0,8.695-6.778.217v-6.637q3.4-.1,6.778-.191Zm0,8.745q-3.386.126-6.778.247v-6.688q3.4-.108,6.778-.221Zm0,8.753q-3.386.137-6.778.276v-6.7q3.4-.124,6.778-.249Zm0,8.746-6.778.3v-6.691q3.4-.141,6.778-.275Zm0,8.753q-3.386.164-6.778.329V329.6q3.4-.15,6.778-.3Zm0,8.746q-3.386.174-6.778.358v-6.688c2.264-.116,4.521-.224,6.778-.336Zm0,8.695c-2.257.123-4.514.26-6.778.387v-6.637q3.4-.185,6.778-.362Zm0,8.753q-3.386.2-6.778.413V355.88l6.778-.39Zm8.638-87.551-6.67.13v-6.662l6.67-.109Zm0,8.71q-3.332.081-6.67.159v-6.663c2.228-.043,4.449-.094,6.67-.137Zm0,8.717c-2.221.057-4.442.123-6.67.184v-6.663c2.228-.053,4.449-.111,6.67-.162Zm0,8.658c-2.221.072-4.442.138-6.67.214V294.3q3.342-.1,6.67-.195Zm0,8.71q-3.332.124-6.67.238v-6.655q3.342-.108,6.67-.22Zm0,8.717q-3.332.139-6.67.267v-6.662c2.228-.08,4.449-.167,6.67-.246Zm0,8.709q-3.332.151-6.67.3V320.47q3.342-.139,6.67-.278Zm0,8.716-6.67.327v-6.666q3.342-.147,6.67-.3Zm0,8.71q-3.332.179-6.67.355v-6.662l6.67-.326Zm0,8.666c-2.221.123-4.442.253-6.67.376v-6.611c2.228-.116,4.449-.239,6.67-.354Zm0,8.709q-3.332.207-6.67.406v-6.662c2.228-.123,4.449-.257,6.67-.384Zm0,8.714-6.67.434V364.12q3.342-.219,6.67-.416Zm8.56-104.583q-3.3.048-6.615.1v-6.634q3.321-.043,6.615-.079Zm0,8.677q-3.3.071-6.615.13v-6.633q3.321-.06,6.615-.112Zm0,8.677q-3.3.087-6.615.159v-6.633q3.321-.072,6.615-.138Zm0,8.68c-2.2.058-4.4.123-6.615.181v-6.633q3.321-.081,6.615-.159Zm0,8.623q-3.3.109-6.615.213v-6.582q3.321-.1,6.615-.192Zm0,8.677c-2.2.083-4.4.159-6.615.242v-6.632q3.321-.109,6.615-.221Zm0,8.681q-3.3.137-6.615.264v-6.633c2.214-.08,4.416-.167,6.615-.246Zm0,8.677c-2.2.093-4.4.2-6.615.289v-6.633q3.321-.13,6.615-.268Zm0,8.68c-2.2.109-4.4.21-6.615.319v-6.637q3.321-.153,6.615-.3Zm0,8.674q-3.3.173-6.615.347v-6.633q3.321-.164,6.615-.326Zm0,8.622q-3.3.2-6.615.377v-6.58c2.214-.119,4.416-.234,6.615-.357Zm0,8.681q-3.3.207-6.615.4v-6.633l6.615-.379Zm0,8.681q-3.3.21-6.615.426v-6.633q3.321-.205,6.615-.413Zm0,8.673q-3.3.228-6.615.459v-6.636c2.214-.145,4.416-.286,6.615-.435Zm8.5-121.477c-2.18.025-4.373.051-6.564.072v-6.6l6.564-.055Zm0,8.644c-2.18.033-4.373.065-6.564.1v-6.608c2.191-.025,4.384-.054,6.564-.08Zm0,8.641c-2.18.04-4.373.083-6.564.126v-6.605l6.564-.108Zm0,8.641c-2.18.053-4.373.1-6.564.159v-6.609c2.191-.047,4.384-.089,6.564-.133Zm0,8.644-6.564.185v-6.609c2.191-.057,4.384-.108,6.564-.163Zm0,8.59c-2.18.069-4.373.142-6.564.214V293.8c2.191-.057,4.384-.123,6.564-.188Zm0,8.641-6.564.239v-6.6c2.191-.072,4.384-.148,6.564-.217Zm0,8.644c-2.18.087-4.373.174-6.564.268v-6.612c2.191-.083,4.384-.167,6.564-.246Zm0,8.645c-2.18.093-4.373.188-6.564.289v-6.6c2.191-.094,4.384-.18,6.564-.274Zm0,8.644c-2.18.1-4.373.21-6.564.315v-6.609c2.191-.1,4.384-.2,6.564-.3Zm0,8.637-6.564.348V337.1c2.191-.108,4.384-.221,6.564-.325Zm0,8.594c-2.18.12-4.373.246-6.564.369v-6.554c2.191-.115,4.384-.238,6.564-.351Zm0,8.641c-2.18.126-4.373.264-6.564.4v-6.609c2.191-.123,4.384-.253,6.564-.376Zm0,8.641c-2.18.137-4.373.282-6.564.427v-6.605c2.191-.138,4.384-.275,6.564-.409Zm0,8.644c-2.18.152-4.373.3-6.564.456v-6.612c2.191-.144,4.384-.286,6.564-.431Zm0,8.645c-2.18.151-4.373.314-6.564.476v-6.6c2.191-.159,4.384-.31,6.564-.463Zm8.428-129.631c-2.163.023-4.337.051-6.511.072v-6.578c2.174-.018,4.348-.033,6.511-.054Zm0,8.609q-3.245.05-6.511.1v-6.583c2.174-.028,4.348-.051,6.511-.079Zm0,8.608c-2.163.04-4.337.087-6.511.123v-6.575l6.511-.109Zm0,8.608-6.511.152V276.29q3.261-.071,6.511-.134Zm0,8.609q-3.245.085-6.511.18v-6.583q3.261-.086,6.511-.159Zm0,8.557q-3.245.1-6.511.2v-6.525q3.261-.1,6.511-.188Zm0,8.6c-2.163.08-4.337.155-6.511.239V302.14q3.261-.108,6.511-.214Zm0,8.608q-3.245.13-6.511.268v-6.586q3.261-.12,6.511-.243Zm0,8.609q-3.245.139-6.511.289v-6.583q3.261-.13,6.511-.264Zm0,8.608q-3.245.157-6.511.319v-6.584q3.261-.151,6.511-.3Zm0,8.608q-3.245.168-6.511.34v-6.576l6.511-.325Zm0,8.554q-3.245.178-6.511.372v-6.532l6.511-.347Zm0,8.609c-2.163.126-4.337.263-6.511.393v-6.579q3.261-.189,6.511-.372Zm0,8.6c-2.163.145-4.337.282-6.511.427v-6.583l6.511-.4Zm0,8.608c-2.163.145-4.337.3-6.511.452v-6.578q3.261-.219,6.511-.431Zm0,8.608q-3.245.239-6.511.478V379.8q3.261-.233,6.511-.459Zm8.358-129.1q-3.222.039-6.452.073v-6.554q3.233-.029,6.452-.051Zm0,8.573c-2.148.036-4.3.065-6.452.1v-6.555q3.233-.042,6.452-.079Zm0,8.575q-3.222.06-6.452.127v-6.554l6.452-.108Zm0,8.572q-3.222.071-6.452.155v-6.556q3.233-.071,6.452-.134Zm0,8.576-6.452.173v-6.554q3.233-.074,6.452-.159Zm0,8.522q-3.222.1-6.452.2v-6.5c2.155-.066,4.3-.123,6.452-.185Zm0,8.568q-3.222.113-6.452.232v-6.551q3.233-.11,6.452-.213Zm0,8.575-6.452.261v-6.558q3.233-.124,6.452-.242Zm0,8.573-6.452.282v-6.55q3.233-.137,6.452-.265Zm0,8.572-6.452.314v-6.557q3.233-.151,6.452-.293Zm0,8.572c-2.148.115-4.3.224-6.452.34v-6.554c2.155-.108,4.3-.218,6.452-.318Zm0,8.522c-2.148.123-4.3.238-6.452.368v-6.5c2.155-.123,4.3-.232,6.452-.348Zm0,8.571-6.452.391v-6.554q3.233-.189,6.452-.369Zm0,8.572c-2.148.142-4.3.275-6.452.42v-6.554q3.233-.2,6.452-.4Zm0,8.576q-3.222.222-6.452.445v-6.554c2.155-.148,4.3-.286,6.452-.427Zm0,8.572q-3.222.234-6.452.474v-6.554c2.155-.156,4.3-.3,6.452-.456Zm8.29-137.121-6.405.044v-6.474q3.217-.012,6.405-.029Zm0,8.537q-3.191.038-6.405.072v-6.525l6.405-.054Zm0,8.539c-2.127.033-4.26.069-6.405.1v-6.524q3.217-.043,6.405-.08Zm0,8.54q-3.191.065-6.405.123v-6.526q3.217-.054,6.405-.1Zm0,8.539q-3.191.071-6.405.148v-6.524l6.405-.131Zm0,8.54-6.405.174v-6.526q3.217-.075,6.405-.159Zm0,8.485q-3.191.1-6.405.2v-6.474q3.217-.1,6.405-.181Zm0,8.535c-2.127.077-4.26.159-6.405.232V301.59q3.217-.1,6.405-.21Zm0,8.544q-3.191.129-6.405.256v-6.528q3.217-.124,6.405-.239Zm0,8.535q-3.191.143-6.405.283V318.72l6.405-.26Zm0,8.541q-3.191.156-6.405.31v-6.528c2.145-.094,4.278-.2,6.405-.293Zm0,8.538c-2.127.109-4.26.225-6.405.333v-6.525q3.217-.15,6.405-.318Zm0,8.486q-3.191.185-6.405.361v-6.473q3.217-.175,6.405-.344Zm0,8.536q-3.191.195-6.405.391v-6.526q3.217-.183,6.405-.368Zm0,8.543q-3.191.207-6.405.412v-6.524q3.217-.2,6.405-.4Zm0,8.536q-3.191.227-6.405.442v-6.526q3.217-.207,6.405-.423Zm0,8.539c-2.127.163-4.26.312-6.405.467v-6.525q3.217-.228,6.405-.449Zm0,8.54c-2.127.159-4.26.333-6.405.5v-6.528c2.145-.155,4.278-.318,6.405-.477Zm8.233-145.11-6.356.043V241.7l6.356-.022Zm0,8.5q-3.174.038-6.356.069v-6.5q3.185-.02,6.356-.047Zm0,8.5q-3.174.048-6.356.1v-6.5q3.185-.042,6.356-.079Zm0,8.506q-3.174.06-6.356.124v-6.5q3.185-.054,6.356-.1Zm0,8.5q-3.174.069-6.356.148v-6.5l6.356-.131Zm0,8.5q-3.174.087-6.356.177v-6.5q3.185-.081,6.356-.158Zm0,8.456q-3.174.1-6.356.2v-6.453q3.185-.091,6.356-.18Zm0,8.5q-3.174.114-6.356.232v-6.5c2.123-.064,4.24-.137,6.356-.206Zm0,8.507c-2.116.079-4.233.173-6.356.257v-6.507c2.123-.072,4.24-.155,6.356-.231Zm0,8.5q-3.174.137-6.356.279v-6.5l6.356-.26Zm0,8.507q-3.174.159-6.356.308v-6.5c2.123-.094,4.24-.2,6.356-.289Zm0,8.5c-2.116.108-4.233.224-6.356.333v-6.5l6.356-.314Zm0,8.452q-3.174.18-6.356.358v-6.449q3.185-.168,6.356-.34Zm0,8.5c-2.116.126-4.233.26-6.356.387v-6.5q3.185-.189,6.356-.368Zm0,8.507-6.356.412v-6.5q3.185-.2,6.356-.391Zm0,8.5c-2.116.144-4.233.3-6.356.44v-6.5c2.123-.14,4.24-.274,6.356-.416Zm0,8.507-6.356.466v-6.5q3.185-.228,6.356-.448Zm0,8.507q-3.174.239-6.356.492v-6.5q3.185-.238,6.356-.47Zm8.156-144.533-6.3.044v-6.424q3.158-.015,6.3-.025Zm0,8.472q-3.143.032-6.3.072v-6.481q3.158-.023,6.3-.051Zm0,8.471c-2.095.028-4.192.064-6.3.093v-6.474q3.158-.037,6.3-.079Zm0,8.47q-3.143.06-6.3.123V267.11q3.158-.048,6.3-.105Zm0,8.471q-3.143.071-6.3.145v-6.475l6.3-.13Zm0,8.471-6.3.174v-6.475q3.158-.081,6.3-.159Zm0,8.42q-3.143.1-6.3.2V292.6c2.105-.058,4.2-.123,6.3-.182Zm0,8.467q-3.143.114-6.3.228v-6.475c2.105-.064,4.2-.14,6.3-.21Zm0,8.475q-3.143.119-6.3.253v-6.481q3.158-.115,6.3-.232Zm0,8.463-6.3.282V318.04l6.3-.26Zm0,8.479-6.3.3v-6.478q3.158-.141,6.3-.285Zm0,8.462q-3.143.176-6.3.333v-6.474q3.158-.151,6.3-.311Zm0,8.42q-3.143.185-6.3.363v-6.424c2.105-.116,4.2-.224,6.3-.34Zm0,8.472q-3.143.195-6.3.387v-6.478q3.158-.174,6.3-.362Zm0,8.474q-3.143.206-6.3.409v-6.475l6.3-.39Zm0,8.467q-3.143.218-6.3.438v-6.475l6.3-.416Zm0,8.475c-2.095.147-4.192.31-6.3.459v-6.475c2.105-.144,4.2-.3,6.3-.44Zm0,8.467c-2.095.163-4.192.333-6.3.492v-6.475q3.158-.238,6.3-.469Zm8.095-135.519q-3.114.039-6.247.073v-6.453c2.088-.014,4.171-.036,6.247-.05Zm0,8.439-6.247.1v-6.452q3.132-.037,6.247-.072Zm0,8.438q-3.114.06-6.247.123v-6.453q3.132-.048,6.247-.1Zm0,8.435-6.247.151V275.44l6.247-.13Zm0,8.441q-3.114.077-6.247.174V283.9q3.132-.077,6.247-.156Zm0,8.385c-2.076.064-4.159.134-6.247.2v-6.4q3.132-.092,6.247-.181Zm0,8.435c-2.076.072-4.159.151-6.247.223V300.78c2.088-.065,4.171-.138,6.247-.206Zm0,8.441q-3.114.12-6.247.25V309.24q3.132-.114,6.247-.232Zm0,8.435q-3.114.135-6.247.275v-6.445l6.247-.261Zm0,8.438-6.247.3v-6.456c2.088-.091,4.171-.189,6.247-.283Zm0,8.435q-3.114.162-6.247.329v-6.446q3.132-.156,6.247-.31Zm0,8.387q-3.114.173-6.247.355v-6.4l6.247-.333Zm0,8.435q-3.114.191-6.247.384V351.5q3.132-.178,6.247-.361Zm0,8.438q-3.114.2-6.247.408v-6.452c2.088-.127,4.171-.26,6.247-.387Zm0,8.438c-2.076.137-4.159.29-6.247.434v-6.452l6.247-.413Zm0,8.435c-2.076.152-4.159.311-6.247.459v-6.449q3.132-.222,6.247-.437Zm8.033-126.545c-2.062.026-4.124.047-6.2.069v-6.424c2.075-.014,4.137-.032,6.2-.051Zm0,8.406c-2.062.032-4.124.061-6.2.094v-6.427c2.075-.022,4.137-.047,6.2-.073Zm0,8.4c-2.062.043-4.124.083-6.2.123v-6.424c2.075-.036,4.137-.068,6.2-.1Zm0,8.405c-2.062.051-4.124.1-6.2.149v-6.427c2.075-.044,4.137-.087,6.2-.123Zm0,8.407c-2.062.057-4.124.115-6.2.169v-6.423c2.075-.051,4.137-.1,6.2-.156Zm0,8.351c-2.062.064-4.124.134-6.2.2v-6.373c2.075-.061,4.137-.122,6.2-.18Zm0,8.4c-2.062.073-4.124.149-6.2.225v-6.424c2.075-.065,4.137-.138,6.2-.2Zm0,8.407c-2.062.079-4.124.166-6.2.253V308.94c2.075-.076,4.137-.152,6.2-.231Zm0,8.4c-2.062.091-4.124.185-6.2.275v-6.42c2.075-.086,4.137-.173,6.2-.256Zm0,8.406c-2.062.1-4.124.2-6.2.3V325.8l6.2-.282Zm0,8.4c-2.062.108-4.124.22-6.2.325v-6.424c2.075-.1,4.137-.2,6.2-.3Zm0,8.354c-2.062.116-4.124.235-6.2.351V342.66c2.075-.112,4.137-.22,6.2-.332Zm0,8.406c-2.062.123-4.124.253-6.2.376v-6.423c2.075-.116,4.137-.247,6.2-.362Zm0,8.4c-2.062.137-4.124.27-6.2.4v-6.424c2.075-.123,4.137-.26,6.2-.383Zm0,8.4c-2.062.145-4.124.286-6.2.431V367.9c2.075-.13,4.137-.274,6.2-.4Zm0,8.406c-2.062.148-4.124.3-6.2.455V376.33c2.075-.145,4.137-.3,6.2-.438Zm7.972-117.676q-3.071.049-6.149.094v-6.4q3.081-.043,6.149-.076Zm0,8.373c-2.047.036-4.095.08-6.149.116v-6.395q3.081-.054,6.149-.1Zm0,8.37q-3.071.077-6.149.144v-6.4q3.081-.06,6.149-.127Zm0,8.369-6.149.174v-6.4l6.149-.151Zm0,8.319q-3.071.1-6.149.2V291.9q3.081-.087,6.149-.181Zm0,8.369c-2.047.08-4.095.149-6.149.225v-6.4q3.081-.105,6.149-.2Zm0,8.377q-3.071.119-6.149.246v-6.4q3.081-.108,6.149-.227Zm0,8.369q-3.071.13-6.149.272v-6.4q3.081-.123,6.149-.252Zm0,8.371q-3.071.15-6.149.3v-6.4q3.081-.137,6.149-.279Zm0,8.369-6.149.325v-6.4c2.054-.1,4.1-.208,6.149-.305Zm0,8.322q-3.071.168-6.149.348V342.23q3.081-.162,6.149-.333Zm0,8.37q-3.071.184-6.149.372v-6.394q3.081-.184,6.149-.355Zm0,8.373q-3.071.2-6.149.4v-6.4c2.054-.126,4.1-.257,6.149-.38Zm0,8.369c-2.047.138-4.095.286-6.149.427v-6.4c2.054-.138,4.1-.269,6.149-.406Zm7.95-108.843c-2.04.033-4.095.061-6.15.1V258.22l6.15-.076Zm0,8.337c-2.04.043-4.095.08-6.15.123v-6.373c2.055-.037,4.11-.073,6.15-.1Zm0,8.34c-2.04.051-4.095.1-6.15.145v-6.373c2.055-.043,4.11-.087,6.15-.126Zm0,8.341c-2.04.051-4.095.109-6.15.166V283.31l6.15-.151Zm0,8.282c-2.04.066-4.095.131-6.15.2v-6.327l6.15-.173Zm0,8.337c-2.04.076-4.095.149-6.15.221v-6.369c2.055-.069,4.11-.134,6.15-.2Zm0,8.345c-2.04.079-4.095.159-6.15.246v-6.381c2.055-.075,4.11-.147,6.15-.223Zm0,8.333c-2.04.091-4.095.182-6.15.275v-6.373c2.055-.087,4.11-.17,6.15-.254Zm0,8.341c-2.04.1-4.095.2-6.15.3v-6.373c2.055-.1,4.11-.189,6.15-.283Zm0,8.333c-2.04.109-4.095.214-6.15.326v-6.373l6.15-.3Zm0,8.29-6.15.348V341.8c2.055-.116,4.11-.22,6.15-.329Zm0,8.337c-2.04.127-4.095.25-6.15.373v-6.373c2.055-.116,4.11-.236,6.15-.355Zm0,8.337c-2.04.137-4.095.268-6.15.405v-6.38c2.055-.127,4.11-.253,6.15-.376Zm0,8.34c-2.04.138-4.095.283-6.15.427v-6.373c2.055-.14,4.11-.267,6.15-.408Zm7.848-100.108c-2.011.04-4.037.079-6.054.115v-6.343c2.017-.037,4.043-.066,6.054-.1Zm0,8.3c-2.011.051-4.037.1-6.054.145v-6.351c2.017-.036,4.043-.079,6.054-.123Zm0,8.308c-2.011.055-4.037.113-6.054.17v-6.351c2.017-.051,4.043-.1,6.054-.149Zm0,8.254c-2.011.065-4.037.127-6.054.192v-6.293c2.017-.062,4.043-.119,6.054-.178Zm0,8.305c-2.011.072-4.037.148-6.054.221v-6.352c2.017-.065,4.043-.131,6.054-.2Zm0,8.308c-2.011.079-4.037.163-6.054.242v-6.348c2.017-.079,4.043-.151,6.054-.227Zm0,8.3c-2.011.087-4.037.181-6.054.268v-6.348l6.054-.25Zm0,8.3c-2.011.1-4.037.2-6.054.3v-6.352c2.017-.089,4.043-.18,6.054-.274Zm0,8.305c-2.011.108-4.037.216-6.054.318V333.05c2.017-.1,4.043-.2,6.054-.3Zm0,8.254-6.054.347v-6.3c2.017-.109,4.043-.217,6.054-.327Zm0,8.308c-2.011.126-4.037.245-6.054.368v-6.347c2.017-.116,4.043-.236,6.054-.351Zm0,8.308-6.054.39v-6.347c2.017-.127,4.043-.25,6.054-.376Zm7.784-74.87-6.011.173v-6.326c2-.05,4.015-.1,6.011-.148Zm0,8.224-6.011.2V291.22c2-.057,4.015-.119,6.011-.17Zm0,8.276c-2,.065-4.008.144-6.011.217V299.47c2-.072,4.015-.136,6.011-.2Zm0,8.272c-2,.083-4.008.163-6.011.242v-6.326c2-.076,4.015-.148,6.011-.221Zm0,8.272c-2,.087-4.008.177-6.011.267v-6.322c2-.083,4.015-.166,6.011-.246Zm0,8.275c-2,.1-4.008.195-6.011.29v-6.322c2-.1,4.015-.182,6.011-.276Zm0,8.272c-2,.105-4.008.213-6.011.315V332.66c2-.094,4.015-.2,6.011-.3Zm0,8.221c-2,.113-4.008.232-6.011.34v-6.271c2-.109,4.015-.217,6.011-.323Z"/><path class="cls-14" d="M119.381,117.647c.028,33.039,25.065,60.466,55.151,61.291,29.238.748,52.315-24.035,52.336-55.4-.021-31.361-23.1-58.679-52.336-61.137C144.438,59.928,119.409,84.605,119.381,117.647Z"/><path class="cls-15" d="M129.226,118.186c.029,27.143,20.534,49.774,45.306,50.573,24.183.742,43.366-19.708,43.389-45.708-.023-26-19.206-48.557-43.389-50.469C149.756,70.664,129.255,91.041,129.226,118.186Z"/><path class="cls-16" d="M131.042,118.284c.014,26.058,19.7,47.8,43.49,48.594,23.249.735,41.71-18.916,41.725-43.917-.015-25-18.476-46.682-41.725-48.5C150.739,72.64,131.056,92.228,131.042,118.284Z"/><path class="cls-17" d="M158.017,119.765c.007,9.894,7.425,18.247,16.515,18.677,9.006.406,16.243-7.143,16.247-16.881s-7.241-18.081-16.247-18.662C165.442,102.335,158.024,109.873,158.017,119.765Z"/><path class="cls-18" d="M172.673,67.1a2.149,2.149,0,0,0,1.859,2.17,1.767,1.767,0,0,0,1.856-1.87,2.151,2.151,0,0,0-1.856-2.172A1.764,1.764,0,0,0,172.673,67.1Z"/><path class="cls-19" d="M172.673,172.922A2.015,2.015,0,0,0,174.532,175a1.879,1.879,0,0,0,1.856-1.968,2.014,2.014,0,0,0-1.856-2.072A1.876,1.876,0,0,0,172.673,172.922Z"/><path class="cls-20" d="M122.228,117.388a2.159,2.159,0,0,0,1.959,2.178,1.884,1.884,0,0,0,1.947-1.962,2.151,2.151,0,0,0-1.947-2.178A1.885,1.885,0,0,0,122.228,117.388Z"/><path class="cls-21" d="M219.679,122.753a2.018,2.018,0,0,0,1.786,2.072,1.757,1.757,0,0,0,1.765-1.877,2.01,2.01,0,0,0-1.765-2.073A1.77,1.77,0,0,0,219.679,122.753Z"/><path class="cls-22" d="M72.806,190.725c.017,15.524,11.776,28.41,25.915,28.8,13.737.355,24.581-11.292,24.591-26.027-.01-14.736-10.858-27.572-24.591-28.726C84.582,163.6,72.823,175.2,72.806,190.725Z"/><path class="cls-23" d="M77.432,190.978c.014,12.753,9.646,23.387,21.289,23.763,11.361.347,20.378-9.259,20.384-21.477s-9.023-22.815-20.384-23.713C87.078,168.651,77.446,178.225,77.432,190.978Z"/><path class="cls-24" d="M78.285,191.025c0,12.243,9.26,22.457,20.436,22.834,10.923.344,19.6-8.891,19.6-20.639s-8.68-21.932-19.6-22.786C87.537,169.581,78.289,178.782,78.285,191.025Z"/><path class="cls-25" d="M90.963,191.723c0,4.644,3.486,8.572,7.758,8.775,4.228.188,7.632-3.357,7.632-7.936s-3.4-8.492-7.632-8.767C94.449,183.535,90.963,187.072,90.963,191.723Z"/><path class="cls-26" d="M97.846,166.976a1.01,1.01,0,0,0,.875,1.02.83.83,0,0,0,.872-.875,1.007,1.007,0,0,0-.872-1.02A.825.825,0,0,0,97.846,166.976Z"/><path class="cls-27" d="M97.846,216.694a.945.945,0,0,0,.875.976.882.882,0,0,0,.872-.921.948.948,0,0,0-.872-.973A.878.878,0,0,0,97.846,216.694Z"/><path class="cls-28" d="M74.147,190.606a1.01,1.01,0,0,0,.919,1.023.888.888,0,0,0,.912-.926,1.007,1.007,0,0,0-.912-1.02A.882.882,0,0,0,74.147,190.606Z"/><path class="cls-29" d="M119.931,193.123a.945.945,0,0,0,.839.973.827.827,0,0,0,.832-.879.946.946,0,0,0-.832-.973A.828.828,0,0,0,119.931,193.123Z"/></g></g></g></svg>