<svg xmlns="http://www.w3.org/2000/svg" viewBox="0 0 1774.427 363.962"><defs><style>.cls-1{fill:#3f76bb;}.cls-2{fill:#5e5f5f;}.cls-3{fill:#151515;}.cls-4{fill:#2d2d2d;}</style></defs><title>Asset 25</title><g id="Layer_2" data-name="Layer 2"><g id="Layer_2-2" data-name="Layer 2"><polygon class="cls-1" points="887 142.515 0 142.515 0 304.094 887 304.094 1774 304.094 1774 142.515 887 142.515"/><polygon class="cls-2" points="1572.913 0 887.427 0 201.941 0 0.427 142.515 887.427 142.515 1774.427 142.515 1572.913 0"/><polygon class="cls-3" points="887.098 298.071 886.903 298.071 549.145 298.071 549.145 363.962 886.903 363.962 887.098 363.962 1224.855 363.962 1224.855 298.071 887.098 298.071"/><polygon class="cls-4" points="1194.633 246.672 887.098 246.672 886.903 246.672 579.367 246.672 549.145 298.071 886.903 298.071 887.098 298.071 1224.855 298.071 1194.633 246.672"/><polygon class="cls-3" points="887.098 180.782 886.903 180.782 579.345 180.782 579.345 246.672 886.903 246.672 887.098 246.672 1194.655 246.672 1194.655 180.782 887.098 180.782"/><polygon class="cls-2" points="1164.433 142.515 887.098 142.515 886.903 142.515 609.567 142.515 579.345 180.782 886.903 180.782 887.098 180.782 1194.655 180.782 1164.433 142.515"/></g></g></svg>