<svg xmlns="http://www.w3.org/2000/svg" viewBox="0 0 262.804 733.205"><defs><style>.cls-1{fill:#3a3a3a;}.cls-2{fill:#0093bf;}.cls-3{fill:#2d2d2d;}.cls-4{fill:#444545;}</style></defs><title>Asset 1</title><g id="Layer_2" data-name="Layer 2"><g id="Layer_2-2" data-name="Layer 2"><path class="cls-1" d="M192.121,731.3a2.567,2.567,0,0,0,.223.5,2.53,2.53,0,0,0,.114.256c.037.053.1.072.141.122a2.671,2.671,0,0,0,.66.57,2.515,2.515,0,0,0,.271.182,2.673,2.673,0,0,0,1.148.274H234.3a2.721,2.721,0,0,0,2.721-2.722V27.74a2.721,2.721,0,0,0-2.721-2.721h-39.62c-.06,0-.109.03-.168.034a2.711,2.711,0,0,0-.546.11,1.849,1.849,0,0,0-.885.433,2.714,2.714,0,0,0-.428.372c-.039.044-.093.065-.13.113a2.457,2.457,0,0,0-.145.3,2.539,2.539,0,0,0-.244.5,2.578,2.578,0,0,0-.111.547,2.626,2.626,0,0,0-.064.32V730.483a2.513,2.513,0,0,0,.055.277A2.6,2.6,0,0,0,192.121,731.3Zm5.278-6.075V677.45l32.32,24.882Zm0-633.39,32.32,24.881L197.4,139.6Zm0,58.562,32.32,24.88-32.32,22.89Zm0,58.562,32.32,24.881-32.32,22.89Zm0,58.562,32.32,24.88-32.32,22.89Zm0,58.562,32.32,24.88L197.4,373.85Zm0,58.562,32.32,24.88-32.32,22.89Zm0,58.561,32.32,24.883L197.4,490.973Zm0,58.562,32.32,24.882L197.4,549.534Zm0,58.561,32.32,24.882L197.4,608.1Zm0,58.562,32.32,24.884L197.4,666.659Zm0-585.618,32.32,24.88L197.4,81.04ZM231.576,63.5v47.771L199.257,86.393Zm0,58.562v47.77l-32.319-24.88Zm0,58.562V228.4l-32.319-24.881Zm0,58.562v47.77l-32.319-24.88Zm0,58.562v47.771l-32.319-24.881Zm0,58.562v47.77L199.257,379.2Zm0,58.562v47.772l-32.319-24.883Zm0,58.563v47.77l-32.319-24.88Zm0,58.562v47.77l-32.319-24.88Zm0,58.561v47.772l-32.319-24.882Zm0,58.564V696.9l-32.319-24.88Zm0-618.663V52.711l-28.9-22.249Zm0,697.3H203.23l28.346-20.076Z"/><rect class="cls-2" x="165.446" width="97.358" height="30.751" rx="5.819" ry="5.819" transform="translate(428.25 30.751) rotate(180)"/><path class="cls-1" d="M26.675,731.3a2.567,2.567,0,0,0,.223.5,2.53,2.53,0,0,0,.114.256c.037.053.1.072.141.122a2.671,2.671,0,0,0,.66.57,2.515,2.515,0,0,0,.271.182,2.673,2.673,0,0,0,1.148.274h39.62a2.721,2.721,0,0,0,2.721-2.722V27.74a2.721,2.721,0,0,0-2.721-2.721H29.232c-.06,0-.109.03-.168.034a2.711,2.711,0,0,0-.546.11,1.849,1.849,0,0,0-.885.433,2.714,2.714,0,0,0-.428.372c-.039.044-.093.065-.13.113a2.457,2.457,0,0,0-.145.3,2.539,2.539,0,0,0-.244.5,2.578,2.578,0,0,0-.111.547,2.626,2.626,0,0,0-.064.32V730.483a2.513,2.513,0,0,0,.055.277A2.6,2.6,0,0,0,26.675,731.3Zm5.278-6.075V677.45l32.32,24.882Zm0-633.39,32.32,24.881L31.953,139.6Zm0,58.562,32.32,24.88-32.32,22.89Zm0,58.562,32.32,24.881-32.32,22.89Zm0,58.562,32.32,24.88-32.32,22.89Zm0,58.562,32.32,24.88L31.953,373.85Zm0,58.562,32.32,24.88-32.32,22.89Zm0,58.561,32.32,24.883-32.32,22.888Zm0,58.562,32.32,24.882-32.32,22.888Zm0,58.561,32.32,24.882L31.953,608.1Zm0,58.562,32.32,24.884-32.32,22.888Zm0-585.618,32.32,24.88L31.953,81.04ZM66.13,63.5v47.771L33.811,86.393Zm0,58.562v47.77l-32.319-24.88Zm0,58.562V228.4L33.811,203.517Zm0,58.562v47.77l-32.319-24.88Zm0,58.562v47.771L33.811,320.641Zm0,58.562v47.77L33.811,379.2Zm0,58.562v47.772L33.811,437.764Zm0,58.563v47.77l-32.319-24.88Zm0,58.562v47.77L33.811,554.89Zm0,58.561v47.772L33.811,613.451Zm0,58.564V696.9l-32.319-24.88Zm0-618.663V52.711l-28.9-22.249Zm0,697.3H37.784L66.13,707.686Z"/><rect class="cls-2" width="97.358" height="30.751" rx="5.819" ry="5.819" transform="translate(97.358 30.751) rotate(180)"/><rect class="cls-3" x="71.539" y="123.658" width="120.306" height="49.458" transform="translate(263.383 296.773) rotate(180)"/><rect class="cls-4" x="71.539" y="148.387" width="120.306" height="24.729" transform="translate(263.383 321.502) rotate(180)"/></g></g></svg>