<svg xmlns="http://www.w3.org/2000/svg" viewBox="0 0 382.395 734.793"><defs><style>.cls-1{fill:#3a3a3a;}.cls-2{fill:#0093bf;}.cls-3{fill:#2d2d2d;}.cls-4{fill:#444545;}</style></defs><title>Asset 5</title><g id="Layer_2" data-name="Layer 2"><g id="Layer_2-2" data-name="Layer 2"><path class="cls-1" d="M311.712,731.3a2.63,2.63,0,0,0,.224.5,2.521,2.521,0,0,0,.113.256c.038.053.1.072.142.122a2.653,2.653,0,0,0,.66.57,2.515,2.515,0,0,0,.271.182,2.665,2.665,0,0,0,1.147.274h39.62a2.721,2.721,0,0,0,2.722-2.722V27.74a2.722,2.722,0,0,0-2.722-2.721h-39.62c-.059,0-.108.03-.167.034a2.684,2.684,0,0,0-.546.11,2.655,2.655,0,0,0-.478.159,4.3,4.3,0,0,0-.835.646c-.039.044-.093.065-.13.113a2.317,2.317,0,0,0-.145.3,2.6,2.6,0,0,0-.245.5,2.64,2.64,0,0,0-.11.547,2.451,2.451,0,0,0-.065.32V730.483a2.515,2.515,0,0,0,.056.277A2.668,2.668,0,0,0,311.712,731.3Zm5.279-6.075V677.45l32.319,24.882Zm0-633.39,32.319,24.881L316.991,139.6Zm0,58.562,32.319,24.88-32.319,22.89Zm0,58.562,32.319,24.881-32.319,22.89Zm0,58.562L349.31,292.4l-32.319,22.89Zm0,58.562,32.319,24.88L316.991,373.85Zm0,58.562,32.319,24.88-32.319,22.89Zm0,58.561,32.319,24.883-32.319,22.888Zm0,58.562,32.319,24.882-32.319,22.888Zm0,58.561,32.319,24.882L316.991,608.1Zm0,58.562,32.319,24.884-32.319,22.888Zm0-585.618,32.319,24.88L316.991,81.04ZM351.168,63.5v47.771L318.849,86.393Zm0,58.562v47.77l-32.319-24.88Zm0,58.562V228.4l-32.319-24.881Zm0,58.562v47.77l-32.319-24.88Zm0,58.562v47.771l-32.319-24.881Zm0,58.562v47.77L318.849,379.2Zm0,58.562v47.772l-32.319-24.883Zm0,58.563v47.77l-32.319-24.88Zm0,58.562v47.77l-32.319-24.88Zm0,58.561v47.772l-32.319-24.882Zm0,58.564V696.9l-32.319-24.88Zm0-618.663V52.711l-28.9-22.249Zm0,697.3H322.822l28.346-20.076Z"/><rect class="cls-2" x="285.038" width="97.358" height="30.751" rx="5.819" ry="5.819" transform="translate(667.433 30.751) rotate(180)"/><path class="cls-1" d="M26.675,732.885a2.584,2.584,0,0,0,.223.5,2.53,2.53,0,0,0,.114.256c.037.054.1.072.141.122a2.65,2.65,0,0,0,.66.57,2.113,2.113,0,0,0,1.419.456h39.62a2.721,2.721,0,0,0,2.721-2.721V29.328a2.722,2.722,0,0,0-2.721-2.721H29.232c-.06,0-.109.03-.168.034a2.711,2.711,0,0,0-.546.11,2.644,2.644,0,0,0-.477.159,2.605,2.605,0,0,0-.408.275,2.658,2.658,0,0,0-.428.371c-.039.044-.093.065-.13.113a2.533,2.533,0,0,0-.145.3,2.539,2.539,0,0,0-.244.5,2.578,2.578,0,0,0-.111.547,2.664,2.664,0,0,0-.064.32V732.072a2.542,2.542,0,0,0,.055.276A2.625,2.625,0,0,0,26.675,732.885Zm5.278-6.076v-47.77l32.32,24.882Zm0-633.39L64.273,118.3l-32.32,22.89Zm0,58.562,32.32,24.88-32.32,22.89Zm0,58.562,32.32,24.881-32.32,22.89Zm0,58.562,32.32,24.88-32.32,22.89Zm0,58.562,32.32,24.881-32.32,22.89Zm0,58.562,32.32,24.88L31.953,434Zm0,58.562,32.32,24.882-32.32,22.888Zm0,58.561,32.32,24.882-32.32,22.888Zm0,58.561L64.273,586.8l-32.32,22.888Zm0,58.562,32.32,24.884-32.32,22.888Zm0-585.618,32.32,24.88L31.953,82.628ZM66.13,65.091v47.771L33.811,87.981Zm0,58.563v47.769l-32.319-24.88Zm0,58.561v47.771L33.811,205.105Zm0,58.562v47.77l-32.319-24.88Zm0,58.562V347.11L33.811,322.229Zm0,58.562v47.77l-32.319-24.88Zm0,58.562v47.772L33.811,439.353Zm0,58.563V522.8l-32.319-24.88Zm0,58.562v47.77l-32.319-24.88Zm0,58.561v47.772L33.811,615.039Zm0,58.564v47.77L33.811,673.6Zm0-618.663V54.3l-28.9-22.25Zm0,697.3H37.784L66.13,709.274Z"/><rect class="cls-2" y="1.588" width="97.358" height="30.751" rx="5.819" ry="5.819" transform="translate(97.358 33.928) rotate(180)"/><path class="cls-1" d="M146.266,731.3a2.63,2.63,0,0,0,.224.5,2.521,2.521,0,0,0,.113.256c.038.053.1.072.142.122a2.653,2.653,0,0,0,.66.57,2.515,2.515,0,0,0,.271.182,2.665,2.665,0,0,0,1.147.274h39.62a2.721,2.721,0,0,0,2.722-2.722V27.74a2.722,2.722,0,0,0-2.722-2.721h-39.62c-.059,0-.108.03-.167.034a2.684,2.684,0,0,0-.546.11,2.655,2.655,0,0,0-.478.159,4.3,4.3,0,0,0-.835.646c-.039.044-.093.065-.13.113a2.317,2.317,0,0,0-.145.3,2.6,2.6,0,0,0-.245.5,2.64,2.64,0,0,0-.11.547,2.451,2.451,0,0,0-.065.32V730.483a2.515,2.515,0,0,0,.056.277A2.6,2.6,0,0,0,146.266,731.3Zm5.279-6.075V677.45l32.319,24.882Zm0-633.39,32.319,24.881L151.545,139.6Zm0,58.562,32.319,24.88-32.319,22.89Zm0,58.562,32.319,24.881-32.319,22.89Zm0,58.562,32.319,24.88-32.319,22.89Zm0,58.562,32.319,24.88L151.545,373.85Zm0,58.562,32.319,24.88-32.319,22.89Zm0,58.561,32.319,24.883-32.319,22.888Zm0,58.562,32.319,24.882-32.319,22.888Zm0,58.561,32.319,24.882L151.545,608.1Zm0,58.562,32.319,24.884-32.319,22.888Zm0-585.618,32.319,24.88L151.545,81.04ZM185.722,63.5v47.771L153.4,86.393Zm0,58.562v47.77L153.4,144.955Zm0,58.562V228.4L153.4,203.517Zm0,58.562v47.77L153.4,262.079Zm0,58.562v47.771L153.4,320.641Zm0,58.562v47.77L153.4,379.2Zm0,58.562v47.772L153.4,437.764Zm0,58.563v47.77L153.4,496.328Zm0,58.562v47.77L153.4,554.89Zm0,58.561v47.772L153.4,613.451Zm0,58.564V696.9L153.4,672.015Zm0-618.663V52.711l-28.9-22.249Zm0,697.3H157.376l28.346-20.076Z"/><rect class="cls-2" x="119.592" width="97.358" height="30.751" rx="5.819" ry="5.819" transform="translate(336.541 30.751) rotate(180)"/><rect class="cls-3" x="191.13" y="123.658" width="120.306" height="49.458" transform="translate(502.566 296.773) rotate(180)"/><rect class="cls-4" x="191.13" y="148.387" width="120.306" height="24.729" transform="translate(502.566 321.502) rotate(180)"/><rect class="cls-3" x="71.573" y="125.664" width="74.529" height="49.458" transform="translate(217.675 300.786) rotate(180)"/><rect class="cls-4" x="71.573" y="150.393" width="74.529" height="24.729" transform="translate(217.675 325.515) rotate(180)"/></g></g></svg>