<svg xmlns="http://www.w3.org/2000/svg" viewBox="0 0 64.923 123.179"><defs><style>.cls-1{isolation:isolate;}.cls-2,.cls-4{fill:#ffcc1c;}.cls-3{fill:#f18c26;}.cls-4{mix-blend-mode:multiply;}.cls-5{fill:#fff;}</style></defs><title>Asset 1</title><g class="cls-1"><g id="Layer_2" data-name="Layer 2"><g id="Layer_1-2" data-name="Layer 1"><polygon class="cls-2" points="60.311 1.97 63.853 0.185 64.738 1.941 61.475 4.273 60.311 1.97"/><path d="M61.559,4.439a.171.171,0,0,1-.128.013.179.179,0,0,1-.121-.094L60.148,2.052a.185.185,0,0,1,.083-.248L63.771.019A.187.187,0,0,1,64.02.1L64.9,1.857a.189.189,0,0,1-.054.236L61.584,4.427A.145.145,0,0,0,61.559,4.439Zm-1-2.389L61.543,4,64.5,1.883,63.773.434Z"/><polygon class="cls-3" points="40.978 37.149 38.093 37.572 38.927 40.453 42.224 39.619 40.978 37.149"/><path d="M42.307,39.785a.166.166,0,0,1-.037.014l-3.3.835a.185.185,0,0,1-.222-.126l-.834-2.886a.176.176,0,0,1,.021-.151.167.167,0,0,1,.129-.08l2.884-.424a.187.187,0,0,1,.193.1l1.245,2.47a.179.179,0,0,1,0,.158A.188.188,0,0,1,42.307,39.785Zm-3.252.448,2.9-.736-1.081-2.146-2.545.373Z"/><path class="cls-2" d="M40.267,41.1c.068.244-.334.57-.9.729h0c-.568.159-1.083.091-1.151-.15l-1.5-5.349c-.069-.244.334-.572.9-.731h0c.568-.159,1.083-.091,1.151.153Z"/><path d="M39.863,41.83a2.816,2.816,0,0,1-.448.174,2.126,2.126,0,0,1-.836.077c-.4-.052-.511-.247-.542-.359l-1.5-5.35c-.076-.269.143-.563.583-.785a2.841,2.841,0,0,1,.447-.17,2.147,2.147,0,0,1,.836-.081c.4.054.511.247.542.361l1.5,5.35C40.52,41.315,40.3,41.607,39.863,41.83Zm-2.58-5.911c-.31.153-.408.313-.4.354l1.5,5.35c0,.019.07.071.234.1a1.845,1.845,0,0,0,.688-.071A2.387,2.387,0,0,0,39.7,41.5c.307-.155.406-.317.392-.356l-1.5-5.351c0-.019-.069-.07-.232-.092a1.836,1.836,0,0,0-.688.068A1.935,1.935,0,0,0,37.283,35.919Z"/><polygon class="cls-3" points="42.683 45.946 39.797 46.369 40.631 49.255 43.927 48.416 42.683 45.946"/><path d="M44.01,48.582a.149.149,0,0,1-.037.014l-3.3.835a.181.181,0,0,1-.222-.126L39.62,46.42a.188.188,0,0,1,.021-.152.186.186,0,0,1,.13-.081l2.884-.422a.187.187,0,0,1,.192.1l1.244,2.47a.18.18,0,0,1,0,.157A.174.174,0,0,1,44.01,48.582Zm-3.252.448,2.9-.734L42.577,46.15l-2.544.37Z"/><path class="cls-2" d="M41.972,49.894c.067.242-.336.569-.9.73h0c-.568.156-1.081.089-1.15-.154l-1.5-5.348c-.071-.244.336-.569.9-.729h0c.566-.16,1.081-.092,1.15.151Z"/><path d="M41.565,50.63a2.88,2.88,0,0,1-.447.171,2.172,2.172,0,0,1-.837.08c-.4-.053-.509-.248-.54-.36l-1.505-5.349c-.076-.272.143-.566.583-.787a2.5,2.5,0,0,1,.448-.169,2.056,2.056,0,0,1,.836-.081c.4.051.512.248.542.359l1.5,5.351C42.225,50.113,42.006,50.4,41.565,50.63Zm-2.579-5.914c-.309.156-.407.314-.394.354l1.5,5.352c.006.021.071.072.234.093a1.754,1.754,0,0,0,.686-.071A2.552,2.552,0,0,0,41.4,50.3c.307-.155.405-.314.392-.357L40.29,44.6c-.006-.023-.072-.074-.234-.094a1.794,1.794,0,0,0-.69.07A2.14,2.14,0,0,0,38.986,44.716Z"/><polygon class="cls-3" points="45.442 54.815 42.557 55.236 43.391 58.121 46.687 57.286 45.442 54.815"/><path d="M46.771,57.451c-.014,0-.025.012-.038.015l-3.3.834a.188.188,0,0,1-.223-.129l-.834-2.882a.188.188,0,0,1,.023-.152.181.181,0,0,1,.128-.081l2.885-.424a.184.184,0,0,1,.19.1L46.851,57.2a.181.181,0,0,1,0,.159A.189.189,0,0,1,46.771,57.451Zm-3.253.448,2.9-.736-1.081-2.147-2.543.374Z"/><path class="cls-2" d="M44.73,58.761c.07.244-.336.569-.9.728h0c-.566.16-1.082.093-1.151-.151l-1.5-5.35c-.067-.242.337-.568.9-.728h0c.568-.158,1.082-.089,1.151.15Z"/><path d="M44.325,59.5a2.88,2.88,0,0,1-.447.171,2.173,2.173,0,0,1-.838.079c-.4-.052-.509-.247-.541-.359L41,54.038c-.075-.268.145-.56.585-.785a2.979,2.979,0,0,1,.445-.172A2.2,2.2,0,0,1,42.863,53c.4.052.509.247.541.36l1.5,5.347C44.985,58.982,44.766,59.274,44.325,59.5Zm-2.58-5.915c-.308.155-.406.315-.394.358l1.505,5.348c0,.02.069.072.233.093a1.828,1.828,0,0,0,.689-.069,2.114,2.114,0,0,0,.38-.147c.308-.155.406-.315.395-.355l-1.5-5.35c-.005-.019-.07-.07-.234-.094a1.809,1.809,0,0,0-.689.071A2.411,2.411,0,0,0,41.745,53.583Z"/><polygon class="cls-3" points="47.83 64.56 44.944 64.982 45.778 67.865 49.073 67.03 47.83 64.56"/><path d="M49.158,67.2l-.037.013-3.3.835a.182.182,0,0,1-.221-.126l-.834-2.885a.182.182,0,0,1,.15-.232l2.885-.423a.185.185,0,0,1,.192.1l1.245,2.471a.182.182,0,0,1,0,.156A.2.2,0,0,1,49.158,67.2Zm-3.253.447,2.9-.735-1.082-2.145-2.545.371Z"/><path class="cls-2" d="M47.117,68.505c.069.244-.334.571-.9.728h0c-.567.161-1.082.094-1.149-.149l-1.5-5.349c-.068-.244.334-.573.9-.73h0c.567-.159,1.082-.091,1.151.153Z"/><path d="M46.713,69.242a2.544,2.544,0,0,1-.449.169,2.092,2.092,0,0,1-.836.081c-.4-.052-.509-.246-.541-.359l-1.5-5.35c-.075-.269.142-.562.583-.785a2.456,2.456,0,0,1,.448-.168,2.04,2.04,0,0,1,.836-.081c.4.05.51.245.541.359l1.505,5.35C47.372,68.726,47.152,69.017,46.713,69.242Zm-2.58-5.913c-.308.156-.407.315-.4.355l1.5,5.351c.007.018.071.07.234.093a1.85,1.85,0,0,0,.689-.07,2.376,2.376,0,0,0,.381-.146c.309-.155.405-.315.393-.355l-1.5-5.351c-.007-.02-.073-.069-.236-.094a1.882,1.882,0,0,0-.686.072A1.965,1.965,0,0,0,44.133,63.329Z"/><polygon class="cls-3" points="50.361 73.68 47.475 74.1 48.31 76.983 51.605 76.148 50.361 73.68"/><path d="M51.688,76.311a.335.335,0,0,1-.038.018l-3.3.833a.185.185,0,0,1-.223-.128L47.3,74.153A.185.185,0,0,1,47.321,74a.179.179,0,0,1,.128-.082l2.885-.423a.185.185,0,0,1,.191.1l1.245,2.468a.2.2,0,0,1,0,.162A.173.173,0,0,1,51.688,76.311Zm-3.25.451,2.9-.736-1.081-2.147-2.544.374Z"/><path class="cls-2" d="M49.648,77.625c.069.242-.335.569-.9.727h0c-.567.162-1.081.092-1.149-.151l-1.5-5.35c-.068-.242.335-.569.9-.728h0c.569-.158,1.083-.089,1.15.151Z"/><path d="M49.244,78.36a2.548,2.548,0,0,1-.449.171,2.208,2.208,0,0,1-.836.08c-.4-.051-.51-.249-.541-.36l-1.5-5.35c-.076-.269.142-.56.582-.783a2.625,2.625,0,0,1,.448-.175,2.181,2.181,0,0,1,.836-.077c.4.053.511.246.541.359l1.5,5.349C49.9,77.845,49.684,78.138,49.244,78.36Zm-2.581-5.915c-.308.156-.406.317-.393.36l1.5,5.347c.006.021.072.073.235.092a1.8,1.8,0,0,0,.688-.068,2.015,2.015,0,0,0,.38-.147c.309-.156.405-.312.395-.355l-1.5-5.349c-.008-.021-.072-.071-.236-.095a1.765,1.765,0,0,0-.687.073A2.177,2.177,0,0,0,46.663,72.445Z"/><path class="cls-2" d="M59.357,3.553,42.231,12.186S35.694,15.331,36.51,20.5s15.8,65.215,15.8,65.215,1.228,5.714-1.624,7.978-5.66.787-8.651-5.967-9.258-23.28-17.52-28.2a2.387,2.387,0,0,1-1.052-2.086c.217-1.209.375-3.078-1.926-.817S.582,87.971.582,87.971-.895,90.23,1.849,89.12s6.255-3.7,9.848,2.059,13.623,30.3,27.262,31.69,28.834-8.615,23.764-29.876-19.14-70.75-19.14-70.75a6.662,6.662,0,0,1,2.468-7.027c3.768-3,14.19-9.906,14.19-9.906Z"/><path class="cls-4" d="M59.357,3.553,42.231,12.186S35.694,15.331,36.51,20.5s15.8,65.215,15.8,65.215,1.228,5.714-1.624,7.978-5.66.787-8.651-5.967-9.258-23.28-17.52-28.2a2.387,2.387,0,0,1-1.052-2.086c.217-1.209.375-3.078-1.926-.817S.582,87.971.582,87.971-.895,90.23,1.849,89.12s6.255-3.7,9.848,2.059,13.623,30.3,27.262,31.69,28.834-8.615,23.764-29.876-19.14-70.75-19.14-70.75a6.662,6.662,0,0,1,2.468-7.027c3.768-3,14.19-9.906,14.19-9.906Z"/><path d="M52.374,120.639v0a24.692,24.692,0,0,1-13.433,2.412C27.605,121.9,18.764,104.939,14.014,95.826c-1.03-1.976-1.844-3.54-2.473-4.548-3.078-4.937-6.01-3.606-8.6-2.433-.349.158-.692.313-1.022.449-.962.388-1.533.422-1.793.105-.372-.451.186-1.353.3-1.529.76-1.188,18.691-29.132,20.98-31.382,1.011-.993,1.656-1.308,2.054-1.01.33.247.387.861.185,1.993-.193,1.082.963,1.894.974,1.9,7.354,4.381,13.033,17.664,16.425,25.6.428,1,.816,1.906,1.157,2.681,1.7,3.828,3.408,6.074,5.083,6.672a3.288,3.288,0,0,0,3.286-.777c2.73-2.167,1.571-7.737,1.558-7.793-.149-.6-14.994-60.107-15.8-65.224-.792-5.019,5.1-8.145,5.772-8.484l.051-.028L59.274,3.391a.179.179,0,0,1,.248.081l.885,1.754a.187.187,0,0,1-.064.238c-.1.067-10.458,6.936-14.176,9.9a6.526,6.526,0,0,0-2.407,6.826c.141.5,14.129,49.746,19.144,70.767,1.6,6.7,1.3,12.636-.894,17.63A20.352,20.352,0,0,1,52.374,120.639Zm-29.563-64.8a5.129,5.129,0,0,0-1.144.911C19.406,58.974.924,87.78.737,88.07c-.221.336-.475.915-.326,1.093.048.062.293.224,1.369-.214.327-.129.663-.284,1.01-.439,2.59-1.175,5.815-2.639,9.063,2.572.638,1.019,1.455,2.588,2.489,4.574,4.717,9.051,13.5,25.9,24.638,27.029a24.251,24.251,0,0,0,13.226-2.376h0a20,20,0,0,0,9.467-9.875c2.156-4.919,2.449-10.773.867-17.4-5.008-21.013-19-70.247-19.137-70.743a6.9,6.9,0,0,1,2.532-7.22c3.5-2.784,12.826-9,14.065-9.825L59.274,3.8,42.265,12.375c-.649.325-6.324,3.336-5.572,8.1.8,5.1,15.646,64.6,15.8,65.2.054.243,1.219,5.859-1.689,8.166a3.658,3.658,0,0,1-3.636.838c-1.8-.645-3.534-2.892-5.3-6.874-.344-.775-.731-1.68-1.16-2.683-3.376-7.9-9.024-21.108-16.285-25.435a2.542,2.542,0,0,1-1.138-2.276c.22-1.229.068-1.55-.041-1.632S22.95,55.768,22.811,55.841Z"/><path class="cls-2" d="M58.268,2.622l2.291,4.546s.65,1.29,1.477.469.72-1.437-.228-3.313L60.727,2.175s-.859-2.322-2.1-1.492C58.631.683,57.481,1.059,58.268,2.622Z"/><path d="M61.847,8c-.678.341-1.246-.341-1.452-.749L58.1,2.7c-.734-1.455.089-2.01.357-2.145a.546.546,0,0,1,.088-.041,1.041,1.041,0,0,1,.995-.125c.831.329,1.334,1.661,1.355,1.719l1.074,2.131c.952,1.884,1.1,2.615.19,3.523A1.244,1.244,0,0,1,61.847,8ZM58.628.887c-.247.122-.759.534-.2,1.653l2.291,4.546c0,.008.439.848.956.586a.88.88,0,0,0,.224-.167c.728-.728.689-1.218-.259-3.1L60.561,2.257C60.549,2.225,60.086,1,59.409.735a.69.69,0,0,0-.674.1.136.136,0,0,1-.045.023A.184.184,0,0,0,58.628.887Z"/><path class="cls-2" d="M5.87,82.618,19.413,63.059s3.068-3.748,2.966-1.493-1.968,4.019.672,3.79,5.177,2.9,12.373,18.27,11.02,21.317,16.965,16.448c0,0,5.17-2.578,2.361-14.433s-12.716-48.72-12.716-48.72-5-18.114-3.031-20.215a8.277,8.277,0,0,1,3.685-3.617s4.282-2.157,3.182-.24-4.387,2.766-4.106,6.6,17.151,68.44,17.151,68.44,5.611,18.788-2.669,25.024-20.32,6.939-26.283-.52S15.931,89.473,12.369,85.409s-6.331.279-7.88.482S4.658,84.371,5.87,82.618Z"/><path class="cls-5" d="M38.589,112.789c-2.539-2.787-5.375-5.174-7.651-8.219a85.745,85.745,0,0,1-5.751-9.217,93.79,93.79,0,0,0-6.346-9.98c-1.2-1.613-3.14-4.541-5.484-4.115-.2.04-.406.539-.135.58,2.765.393,4.671,5.258,5.78,7.386,1.829,3.5,3.565,7.036,5.494,10.489,2.941,5.262,7.058,13.006,13.469,14.513C38.671,114.391,38.99,113.223,38.589,112.789Z"/><path class="cls-5" d="M45.954,112.947a.936.936,0,0,0-.538.192,2.088,2.088,0,0,1-.7.222,2.53,2.53,0,0,1-1.348.022c-.42-.157-.61.627-.379.873.78.838,2.724,1.158,3.307-.074C46.5,113.758,46.58,113.014,45.954,112.947Z"/><path class="cls-5" d="M41.005,15.625c-1.964,1.343-1.855,4.649-.954,6.609.255.552.841-.2.863-.51.149-1.931-.986-3.8.321-5.552C41.383,15.972,41.375,15.373,41.005,15.625Z"/><path class="cls-5" d="M59.743,2.062c-.315-.435-.744.341-.56.672.48.86.612,1.925,1.3,2.656.388.412.7-.571.575-.854A12.5,12.5,0,0,0,59.743,2.062Z"/></g></g></g></svg>